<svg width="16" height="16" version="1.1" xmlns="http://www.w3.org/2000/svg"><path fill="rgb(0,0,0)" stroke="rgb(0,0,0)" stroke-width="1" opacity="0" d="M 0 0 L 3 0.5 L 0.5 4 L 0 0 Z "></path><path fill="rgb(0,0,0)" stroke="rgb(0,0,0)" stroke-width="1" opacity="0" d="M 13.5 0 Q 17.25 -1.25 16 2.5 L 15.5 3 L 13 0.5 L 13.5 0 Z "></path><path fill="rgb(0,0,0)" stroke="rgb(0,0,0)" stroke-width="1" opacity="0" d="M 0.5 12 L 3 15.5 L 0 16 L 0.5 12 Z "></path><path fill="rgb(0,0,0)" stroke="rgb(0,0,0)" stroke-width="1" opacity="0" d="M 15.5 12 L 16 16 L 13 15.5 L 15.5 12 Z "></path><path fill="rgb(0,0,0)" stroke="rgb(0,0,0)" stroke-width="1" opacity="0.054901960784313725" d="M 2.5 1 Q 4 2 1.5 3 Q 0 2 2.5 1 Z "></path><path fill="rgb(0,0,0)" stroke="rgb(0,0,0)" stroke-width="1" opacity="0.054901960784313725" d="M 13.5 1 Q 16 2 14.5 3 Q 12 2 13.5 1 Z "></path><path fill="rgb(0,0,0)" stroke="rgb(0,0,0)" stroke-width="1" opacity="0.054901960784313725" d="M 14.5 13 Q 16 14 13.5 15 Q 12 14 14.5 13 Z "></path><path fill="rgb(39,31,2)" stroke="rgb(39,31,2)" stroke-width="1" opacity="0.9921568627450981" d="M 3.5 2 Q 5 3 2.5 4 Q 1 3 3.5 2 Z "></path><path fill="rgb(39,31,2)" stroke="rgb(39,31,2)" stroke-width="1" opacity="0.9921568627450981" d="M 12.5 2 L 12.5 3 L 12.5 2 Z "></path><path fill="rgb(39,31,2)" stroke="rgb(39,31,2)" stroke-width="1" opacity="0.9921568627450981" d="M 8.5 3 L 8.5 4 L 8.5 3 Z "></path><path fill="rgb(39,31,2)" stroke="rgb(39,31,2)" stroke-width="1" opacity="0.9921568627450981" d="M 4.5 4 L 4.5 5 L 4.5 4 Z "></path><path fill="rgb(39,31,2)" stroke="rgb(39,31,2)" stroke-width="1" opacity="0.9921568627450981" d="M 2.5 5 L 2.5 6 L 2.5 5 Z "></path><path fill="rgb(0,0,0)" stroke="rgb(0,0,0)" stroke-width="1" opacity="1" d="M 7.5 1 L 12 2 Q 13.25 5 9.5 4 L 7.5 3 Q 6.58 4.75 4 4 Q 2.75 1 6.5 2 L 7.5 1 Z "></path><path fill="rgb(0,0,0)" stroke="rgb(0,0,0)" stroke-width="1" opacity="1" d="M 2.5 6 L 3 11.5 L 5 13.5 L 4.5 14 L 2 11.5 L 1 7.5 L 2.5 6 Z "></path><path fill="rgb(0,0,0)" stroke="rgb(0,0,0)" stroke-width="1" opacity="1" d="M 13 7 Q 16 6 15 9 Q 12 10 13 7 Z "></path><path fill="rgb(0,0,0)" stroke="rgb(0,0,0)" stroke-width="1" opacity="1" d="M 13.5 11 L 13.5 12 L 13.5 11 Z "></path><path fill="rgb(0,0,0)" stroke="rgb(0,0,0)" stroke-width="1" opacity="1" d="M 7.5 14 L 9 14.5 L 7.5 15 L 7.5 14 Z "></path><path fill="rgb(88,70,12)" stroke="rgb(88,70,12)" stroke-width="1" opacity="1" d="M 3.5 3 L 3.5 4 L 3.5 3 Z "></path><path fill="rgb(88,70,12)" stroke="rgb(88,70,12)" stroke-width="1" opacity="1" d="M 13.5 5 Q 15 6 12.5 7 Q 11 6 13.5 5 Z "></path><path fill="rgb(22,19,0)" stroke="rgb(22,19,0)" stroke-width="1" opacity="0.5254901960784314" d="M 10.5 0 L 10.5 1 L 10.5 0 Z "></path><path fill="rgb(22,19,0)" stroke="rgb(22,19,0)" stroke-width="1" opacity="0.5254901960784314" d="M 12.5 1 L 12.5 2 L 12.5 1 Z "></path><path fill="rgb(22,19,0)" stroke="rgb(22,19,0)" stroke-width="1" opacity="0.5254901960784314" d="M 14.5 3 L 14.5 4 L 14.5 3 Z "></path><path fill="rgb(22,19,0)" stroke="rgb(22,19,0)" stroke-width="1" opacity="0.5254901960784314" d="M 15.5 5 L 15.5 6 L 15.5 5 Z "></path><path fill="rgb(22,19,0)" stroke="rgb(22,19,0)" stroke-width="1" opacity="0.5254901960784314" d="M 15.5 10 L 15.5 11 L 15.5 10 Z "></path><path fill="rgb(12,9,0)" stroke="rgb(12,9,0)" stroke-width="1" opacity="0.20392156862745098" d="M 4.5 0 L 4.5 1 L 4.5 0 Z "></path><path fill="rgb(12,9,0)" stroke="rgb(12,9,0)" stroke-width="1" opacity="0.20392156862745098" d="M 11.5 0 L 11.5 1 L 11.5 0 Z "></path><path fill="rgb(12,9,0)" stroke="rgb(12,9,0)" stroke-width="1" opacity="0.20392156862745098" d="M 15.5 4 L 15.5 5 L 15.5 4 Z "></path><path fill="rgb(12,9,0)" stroke="rgb(12,9,0)" stroke-width="1" opacity="0.20392156862745098" d="M 15.5 11 L 15.5 12 L 15.5 11 Z "></path><path fill="rgb(22,18,0)" stroke="rgb(22,18,0)" stroke-width="1" opacity="0.8980392156862745" d="M 7.5 0 L 9 0.5 L 7.5 1 L 7.5 0 Z "></path><path fill="rgb(22,18,0)" stroke="rgb(22,18,0)" stroke-width="1" opacity="0.8980392156862745" d="M 11.5 1 L 11.5 2 L 11.5 1 Z "></path><path fill="rgb(22,18,0)" stroke="rgb(22,18,0)" stroke-width="1" opacity="0.8980392156862745" d="M 14.5 4 L 14.5 5 L 14.5 4 Z "></path><path fill="rgb(22,18,0)" stroke="rgb(22,18,0)" stroke-width="1" opacity="0.8980392156862745" d="M 15.5 7 L 16 8.5 L 15 8.5 L 15.5 7 Z "></path><path fill="rgb(189,134,41)" stroke="rgb(189,134,41)" stroke-width="1" opacity="1" d="M 3.5 4 L 3.5 5 L 3.5 4 Z "></path><path fill="rgb(189,134,41)" stroke="rgb(189,134,41)" stroke-width="1" opacity="1" d="M 6.5 7 L 6.5 8 L 6.5 7 Z "></path><path fill="rgb(189,134,41)" stroke="rgb(189,134,41)" stroke-width="1" opacity="1" d="M 9.5 7 L 9.5 8 L 9.5 7 Z "></path><path fill="rgb(4,6,10)" stroke="rgb(4,6,10)" stroke-width="1" opacity="1" d="M 5.5 4 L 5.5 5 L 5.5 4 Z "></path><path fill="rgb(100,88,50)" stroke="rgb(100,88,50)" stroke-width="1" opacity="1" d="M 11.5 5 L 11.5 6 L 11.5 5 Z "></path><path fill="rgb(100,88,50)" stroke="rgb(100,88,50)" stroke-width="1" opacity="1" d="M 4.5 6 L 4.5 7 L 4.5 6 Z "></path><path fill="rgb(100,88,50)" stroke="rgb(100,88,50)" stroke-width="1" opacity="1" d="M 7.5 6 L 7.5 7 L 7.5 6 Z "></path><path fill="rgb(100,88,50)" stroke="rgb(100,88,50)" stroke-width="1" opacity="1" d="M 6.5 9 L 6.5 10 L 6.5 9 Z "></path><path fill="rgb(121,104,36)" stroke="rgb(121,104,36)" stroke-width="1" opacity="1" d="M 7.5 4 L 9 6.5 Q 8 8 7 5.5 L 7.5 4 Z "></path><path fill="rgb(121,104,36)" stroke="rgb(121,104,36)" stroke-width="1" opacity="1" d="M 13.5 4 L 13.5 5 L 13.5 4 Z "></path><path fill="rgb(121,104,36)" stroke="rgb(121,104,36)" stroke-width="1" opacity="1" d="M 4.5 5 L 4.5 6 L 4.5 5 Z "></path><path fill="rgb(146,122,43)" stroke="rgb(146,122,43)" stroke-width="1" opacity="1" d="M 8.5 4 L 9 5.5 L 8 5.5 L 8.5 4 Z "></path><path fill="rgb(146,122,43)" stroke="rgb(146,122,43)" stroke-width="1" opacity="1" d="M 12.5 4 L 12.5 5 L 12.5 4 Z "></path><path fill="rgb(146,122,43)" stroke="rgb(146,122,43)" stroke-width="1" opacity="1" d="M 9.5 9 L 9.5 10 L 9.5 9 Z "></path><path fill="rgb(55,73,92)" stroke="rgb(55,73,92)" stroke-width="1" opacity="1" d="M 6.5 5 L 6.5 6 L 6.5 5 Z "></path><path fill="rgb(55,73,92)" stroke="rgb(55,73,92)" stroke-width="1" opacity="1" d="M 9 5 L 11 5.5 Q 10 8 9 6.5 L 9 5 Z "></path><path fill="rgb(200,173,48)" stroke="rgb(200,173,48)" stroke-width="1" opacity="1" d="M 3.5 5 L 3.5 6 L 3.5 5 Z "></path><path fill="rgb(200,173,48)" stroke="rgb(200,173,48)" stroke-width="1" opacity="1" d="M 12.5 5 L 12.5 6 L 12.5 5 Z "></path><path fill="rgb(6,4,0)" stroke="rgb(6,4,0)" stroke-width="1" opacity="1" d="M 10.5 1 L 10.5 2 L 10.5 1 Z "></path><path fill="rgb(6,4,0)" stroke="rgb(6,4,0)" stroke-width="1" opacity="1" d="M 14.5 5 L 14.5 6 L 14.5 5 Z "></path><path fill="rgb(24,20,1)" stroke="rgb(24,20,1)" stroke-width="1" opacity="0.803921568627451" d="M 6.5 0 L 6.5 1 L 6.5 0 Z "></path><path fill="rgb(24,20,1)" stroke="rgb(24,20,1)" stroke-width="1" opacity="0.803921568627451" d="M 9.5 0 L 9.5 1 L 9.5 0 Z "></path><path fill="rgb(24,20,1)" stroke="rgb(24,20,1)" stroke-width="1" opacity="0.803921568627451" d="M 15.5 6 L 15.5 7 L 15.5 6 Z "></path><path fill="rgb(24,20,1)" stroke="rgb(24,20,1)" stroke-width="1" opacity="0.803921568627451" d="M 15.5 9 L 15.5 10 L 15.5 9 Z "></path><path fill="rgb(1,1,0)" stroke="rgb(1,1,0)" stroke-width="1" opacity="1" d="M 6.5 1 L 6.5 2 L 6.5 1 Z "></path><path fill="rgb(1,1,0)" stroke="rgb(1,1,0)" stroke-width="1" opacity="1" d="M 9.5 1 L 9.5 2 L 9.5 1 Z "></path><path fill="rgb(1,1,0)" stroke="rgb(1,1,0)" stroke-width="1" opacity="1" d="M 14.5 6 L 14.5 7 L 14.5 6 Z "></path><path fill="rgb(1,1,0)" stroke="rgb(1,1,0)" stroke-width="1" opacity="1" d="M 13 9 L 15 9.5 Q 14 12 13 10.5 L 13 9 Z "></path><path fill="rgb(1,1,0)" stroke="rgb(1,1,0)" stroke-width="1" opacity="1" d="M 11.5 13 L 11.5 14 L 11.5 13 Z "></path><path fill="rgb(1,1,0)" stroke="rgb(1,1,0)" stroke-width="1" opacity="1" d="M 6.5 14 L 6.5 15 L 6.5 14 Z "></path><path fill="rgb(1,1,0)" stroke="rgb(1,1,0)" stroke-width="1" opacity="1" d="M 9.5 14 L 9.5 15 L 9.5 14 Z "></path><path fill="rgb(72,57,7)" stroke="rgb(72,57,7)" stroke-width="1" opacity="0.996078431372549" d="M 12.5 3 L 14 3.5 L 12.5 4 L 12.5 3 Z "></path><path fill="rgb(72,57,7)" stroke="rgb(72,57,7)" stroke-width="1" opacity="0.996078431372549" d="M 2.5 4 L 2.5 5 L 2.5 4 Z "></path><path fill="rgb(72,57,7)" stroke="rgb(72,57,7)" stroke-width="1" opacity="0.996078431372549" d="M 3.5 6 L 3.5 7 L 3.5 6 Z "></path><path fill="rgb(3,1,0)" stroke="rgb(3,1,0)" stroke-width="1" opacity="1" d="M 3.5 7 L 3.5 8 L 3.5 7 Z "></path><path fill="rgb(240,151,14)" stroke="rgb(240,151,14)" stroke-width="1" opacity="1" d="M 7.5 8 L 9 8.5 L 7.5 9 L 7.5 8 Z "></path><path fill="rgb(187,123,30)" stroke="rgb(187,123,30)" stroke-width="1" opacity="1" d="M 5.5 8 L 7 8.5 L 5.5 9 L 5.5 8 Z "></path><path fill="rgb(187,123,30)" stroke="rgb(187,123,30)" stroke-width="1" opacity="1" d="M 10.5 8 L 10.5 9 L 10.5 8 Z "></path><path fill="rgb(198,116,5)" stroke="rgb(198,116,5)" stroke-width="1" opacity="1" d="M 8.5 7 L 8.5 8 L 8.5 7 Z "></path><path fill="rgb(201,120,13)" stroke="rgb(201,120,13)" stroke-width="1" opacity="1" d="M 5.5 7 L 5.5 8 L 5.5 7 Z "></path><path fill="rgb(201,120,13)" stroke="rgb(201,120,13)" stroke-width="1" opacity="1" d="M 7.5 7 L 7.5 8 L 7.5 7 Z "></path><path fill="rgb(201,120,13)" stroke="rgb(201,120,13)" stroke-width="1" opacity="1" d="M 10.5 7 Q 12 8 9.5 9 Q 8 8 10.5 7 Z "></path><path fill="rgb(16,3,0)" stroke="rgb(16,3,0)" stroke-width="1" opacity="1" d="M 12.5 7 L 12.5 8 L 12.5 7 Z "></path><path fill="rgb(30,26,1)" stroke="rgb(30,26,1)" stroke-width="1" opacity="0.8862745098039215" d="M 4.5 1 L 4.5 2 L 4.5 1 Z "></path><path fill="rgb(30,26,1)" stroke="rgb(30,26,1)" stroke-width="1" opacity="0.8862745098039215" d="M 1.5 4 L 1.5 5 L 1.5 4 Z "></path><path fill="rgb(30,26,1)" stroke="rgb(30,26,1)" stroke-width="1" opacity="0.8862745098039215" d="M 0.5 7 L 1 8.5 L 0 8.5 L 0.5 7 Z "></path><path fill="rgb(30,26,1)" stroke="rgb(30,26,1)" stroke-width="1" opacity="0.8862745098039215" d="M 14.5 11 L 14.5 12 L 14.5 11 Z "></path><path fill="rgb(30,26,1)" stroke="rgb(30,26,1)" stroke-width="1" opacity="0.8862745098039215" d="M 11.5 14 L 11.5 15 L 11.5 14 Z "></path><path fill="rgb(30,26,1)" stroke="rgb(30,26,1)" stroke-width="1" opacity="0.8862745098039215" d="M 7.5 15 L 9 15.5 L 7.5 16 L 7.5 15 Z "></path><path fill="rgb(34,30,0)" stroke="rgb(34,30,0)" stroke-width="1" opacity="0.7764705882352941" d="M 0.5 6 L 0.5 7 L 0.5 6 Z "></path><path fill="rgb(34,30,0)" stroke="rgb(34,30,0)" stroke-width="1" opacity="0.7764705882352941" d="M 0.5 9 L 0.5 10 L 0.5 9 Z "></path><path fill="rgb(34,30,0)" stroke="rgb(34,30,0)" stroke-width="1" opacity="0.7764705882352941" d="M 6.5 15 L 6.5 16 L 6.5 15 Z "></path><path fill="rgb(34,30,0)" stroke="rgb(34,30,0)" stroke-width="1" opacity="0.7764705882352941" d="M 9.5 15 L 9.5 16 L 9.5 15 Z "></path><path fill="rgb(3,2,0)" stroke="rgb(3,2,0)" stroke-width="1" opacity="1" d="M 1.5 6 L 1.5 7 L 1.5 6 Z "></path><path fill="rgb(3,2,0)" stroke="rgb(3,2,0)" stroke-width="1" opacity="1" d="M 13.5 6 L 13.5 7 L 13.5 6 Z "></path><path fill="rgb(3,2,0)" stroke="rgb(3,2,0)" stroke-width="1" opacity="1" d="M 1.5 9 L 1.5 10 L 1.5 9 Z "></path><path fill="rgb(121,137,157)" stroke="rgb(121,137,157)" stroke-width="1" opacity="1" d="M 11.5 9 L 11.5 10 L 11.5 9 Z "></path><path fill="rgb(121,137,157)" stroke="rgb(121,137,157)" stroke-width="1" opacity="1" d="M 4.5 11 Q 7 12 5.5 13 Q 3 12 4.5 11 Z "></path><path fill="rgb(68,84,104)" stroke="rgb(68,84,104)" stroke-width="1" opacity="1" d="M 5.5 6 L 7 6.5 L 5.5 7 L 5.5 6 Z "></path><path fill="rgb(68,84,104)" stroke="rgb(68,84,104)" stroke-width="1" opacity="1" d="M 10.5 6 L 10.5 7 L 10.5 6 Z "></path><path fill="rgb(68,84,104)" stroke="rgb(68,84,104)" stroke-width="1" opacity="1" d="M 5.5 9 L 5.5 10 L 5.5 9 Z "></path><path fill="rgb(239,179,94)" stroke="rgb(239,179,94)" stroke-width="1" opacity="1" d="M 7.5 9 L 7.5 10 L 7.5 9 Z "></path><path fill="rgb(231,189,129)" stroke="rgb(231,189,129)" stroke-width="1" opacity="1" d="M 4.5 8 L 4.5 9 L 4.5 8 Z "></path><path fill="rgb(231,189,129)" stroke="rgb(231,189,129)" stroke-width="1" opacity="1" d="M 8.5 9 L 8.5 10 L 8.5 9 Z "></path><path fill="rgb(55,61,69)" stroke="rgb(55,61,69)" stroke-width="1" opacity="1" d="M 6.5 4 Q 8 5 5.5 6 Q 4 5 6.5 4 Z "></path><path fill="rgb(55,61,69)" stroke="rgb(55,61,69)" stroke-width="1" opacity="1" d="M 9.5 4 L 9.5 5 L 9.5 4 Z "></path><path fill="rgb(55,61,69)" stroke="rgb(55,61,69)" stroke-width="1" opacity="1" d="M 11.5 6 L 11.5 7 L 11.5 6 Z "></path><path fill="rgb(55,61,69)" stroke="rgb(55,61,69)" stroke-width="1" opacity="1" d="M 3.5 8 L 3.5 9 L 3.5 8 Z "></path><path fill="rgb(55,61,69)" stroke="rgb(55,61,69)" stroke-width="1" opacity="1" d="M 10.5 9 L 10.5 10 L 10.5 9 Z "></path><path fill="rgb(55,61,69)" stroke="rgb(55,61,69)" stroke-width="1" opacity="1" d="M 11.5 12 L 11.5 13 L 11.5 12 Z "></path><path fill="rgb(55,61,69)" stroke="rgb(55,61,69)" stroke-width="1" opacity="1" d="M 7.5 13 L 9 13.5 L 7.5 14 L 7.5 13 Z "></path><path fill="rgb(69,130,208)" stroke="rgb(69,130,208)" stroke-width="1" opacity="1" d="M 11.5 10 L 12 11.5 L 11 11.5 L 11.5 10 Z "></path><path fill="rgb(99,107,114)" stroke="rgb(99,107,114)" stroke-width="1" opacity="1" d="M 3.5 9 L 4 10.5 L 3 10.5 L 3.5 9 Z "></path><path fill="rgb(99,107,114)" stroke="rgb(99,107,114)" stroke-width="1" opacity="1" d="M 12.5 9 L 13 10.5 L 12 10.5 L 12.5 9 Z "></path><path fill="rgb(10,7,0)" stroke="rgb(10,7,0)" stroke-width="1" opacity="1" d="M 5.5 1 L 5.5 2 L 5.5 1 Z "></path><path fill="rgb(10,7,0)" stroke="rgb(10,7,0)" stroke-width="1" opacity="1" d="M 11.5 4 L 11.5 5 L 11.5 4 Z "></path><path fill="rgb(10,7,0)" stroke="rgb(10,7,0)" stroke-width="1" opacity="1" d="M 1.5 5 L 1.5 6 L 1.5 5 Z "></path><path fill="rgb(10,7,0)" stroke="rgb(10,7,0)" stroke-width="1" opacity="1" d="M 14.5 10 L 14.5 11 L 14.5 10 Z "></path><path fill="rgb(10,7,0)" stroke="rgb(10,7,0)" stroke-width="1" opacity="1" d="M 5.5 14 L 5.5 15 L 5.5 14 Z "></path><path fill="rgb(10,7,0)" stroke="rgb(10,7,0)" stroke-width="1" opacity="1" d="M 10.5 14 L 10.5 15 L 10.5 14 Z "></path><path fill="rgb(21,17,0)" stroke="rgb(21,17,0)" stroke-width="1" opacity="0.1843137254901961" d="M 0.5 4 L 0.5 5 L 0.5 4 Z "></path><path fill="rgb(21,17,0)" stroke="rgb(21,17,0)" stroke-width="1" opacity="0.1843137254901961" d="M 0.5 11 L 0.5 12 L 0.5 11 Z "></path><path fill="rgb(21,17,0)" stroke="rgb(21,17,0)" stroke-width="1" opacity="0.1843137254901961" d="M 4.5 15 L 4.5 16 L 4.5 15 Z "></path><path fill="rgb(21,17,0)" stroke="rgb(21,17,0)" stroke-width="1" opacity="0.1843137254901961" d="M 11.5 15 L 11.5 16 L 11.5 15 Z "></path><path fill="rgb(34,30,1)" stroke="rgb(34,30,1)" stroke-width="1" opacity="0.8705882352941177" d="M 1.5 11 L 1.5 12 L 1.5 11 Z "></path><path fill="rgb(34,30,1)" stroke="rgb(34,30,1)" stroke-width="1" opacity="0.8705882352941177" d="M 4.5 14 L 4.5 15 L 4.5 14 Z "></path><path fill="rgb(40,45,53)" stroke="rgb(40,45,53)" stroke-width="1" opacity="1" d="M 12.5 8 L 12.5 9 L 12.5 8 Z "></path><path fill="rgb(40,45,53)" stroke="rgb(40,45,53)" stroke-width="1" opacity="1" d="M 3.5 11 Q 6 12 4.5 13 Q 2 12 3.5 11 Z "></path><path fill="rgb(40,45,53)" stroke="rgb(40,45,53)" stroke-width="1" opacity="1" d="M 12.5 11 L 12.5 12 L 12.5 11 Z "></path><path fill="rgb(40,45,53)" stroke="rgb(40,45,53)" stroke-width="1" opacity="1" d="M 6.5 13 L 6.5 14 L 6.5 13 Z "></path><path fill="rgb(40,45,53)" stroke="rgb(40,45,53)" stroke-width="1" opacity="1" d="M 9.5 13 L 9.5 14 L 9.5 13 Z "></path><path fill="rgb(180,200,226)" stroke="rgb(180,200,226)" stroke-width="1" opacity="1" d="M 4.5 9 L 7 10 Q 8.13 12.67 5.5 12 Q 3.13 11.13 4.5 9 Z "></path><path fill="rgb(180,200,226)" stroke="rgb(180,200,226)" stroke-width="1" opacity="1" d="M 9.5 10 Q 11.75 9.25 11 11.5 L 10.5 12 Q 8 11 9.5 10 Z "></path><path fill="rgb(152,133,119)" stroke="rgb(152,133,119)" stroke-width="1" opacity="1" d="M 11.5 8 L 11.5 9 L 11.5 8 Z "></path><path fill="rgb(152,133,119)" stroke="rgb(152,133,119)" stroke-width="1" opacity="1" d="M 8.5 10 Q 10 11 7.5 12 Q 6 11 8.5 10 Z "></path><path fill="rgb(125,97,91)" stroke="rgb(125,97,91)" stroke-width="1" opacity="1" d="M 8.5 11 L 8.5 12 L 8.5 11 Z "></path><path fill="rgb(158,78,28)" stroke="rgb(158,78,28)" stroke-width="1" opacity="1" d="M 4.5 7 L 4.5 8 L 4.5 7 Z "></path><path fill="rgb(158,78,28)" stroke="rgb(158,78,28)" stroke-width="1" opacity="1" d="M 11.5 7 L 11.5 8 L 11.5 7 Z "></path><path fill="rgb(158,78,28)" stroke="rgb(158,78,28)" stroke-width="1" opacity="1" d="M 7.5 12 L 9 12.5 L 7.5 13 L 7.5 12 Z "></path><path fill="rgb(180,178,177)" stroke="rgb(180,178,177)" stroke-width="1" opacity="1" d="M 7.5 10 L 7.5 11 L 7.5 10 Z "></path><path fill="rgb(180,178,177)" stroke="rgb(180,178,177)" stroke-width="1" opacity="1" d="M 9.5 11 Q 12 12 10.5 13 Q 7.71 13.67 9.5 11 Z "></path><path fill="rgb(180,178,177)" stroke="rgb(180,178,177)" stroke-width="1" opacity="1" d="M 6.5 12 L 6.5 13 L 6.5 12 Z "></path><path fill="rgb(0,0,1)" stroke="rgb(0,0,1)" stroke-width="1" opacity="1" d="M 12.5 12 L 12.5 13 L 12.5 12 Z "></path><path fill="rgb(31,27,0)" stroke="rgb(31,27,0)" stroke-width="1" opacity="0.4588235294117647" d="M 3.5 1 L 3.5 2 L 3.5 1 Z "></path><path fill="rgb(31,27,0)" stroke="rgb(31,27,0)" stroke-width="1" opacity="0.4588235294117647" d="M 1.5 3 L 1.5 4 L 1.5 3 Z "></path><path fill="rgb(31,27,0)" stroke="rgb(31,27,0)" stroke-width="1" opacity="0.4588235294117647" d="M 1.5 12 L 1.5 13 L 1.5 12 Z "></path><path fill="rgb(31,27,0)" stroke="rgb(31,27,0)" stroke-width="1" opacity="0.4588235294117647" d="M 14.5 12 L 14.5 13 L 14.5 12 Z "></path><path fill="rgb(31,27,0)" stroke="rgb(31,27,0)" stroke-width="1" opacity="0.4588235294117647" d="M 3.5 14 L 3.5 15 L 3.5 14 Z "></path><path fill="rgb(31,27,0)" stroke="rgb(31,27,0)" stroke-width="1" opacity="0.4588235294117647" d="M 12.5 14 L 12.5 15 L 12.5 14 Z "></path><path fill="rgb(0,0,0)" stroke="rgb(0,0,0)" stroke-width="1" opacity="0.00784313725490196" d="M 3.5 0 L 3.5 1 L 3.5 0 Z "></path><path fill="rgb(0,0,0)" stroke="rgb(0,0,0)" stroke-width="1" opacity="0.00784313725490196" d="M 12.5 0 L 12.5 1 L 12.5 0 Z "></path><path fill="rgb(0,0,0)" stroke="rgb(0,0,0)" stroke-width="1" opacity="0.00784313725490196" d="M 15.5 3 L 15.5 4 L 15.5 3 Z "></path><path fill="rgb(0,0,0)" stroke="rgb(0,0,0)" stroke-width="1" opacity="0.00784313725490196" d="M 3.5 15 L 3.5 16 L 3.5 15 Z "></path><path fill="rgb(0,0,0)" stroke="rgb(0,0,0)" stroke-width="1" opacity="0.00784313725490196" d="M 12.5 15 L 12.5 16 L 12.5 15 Z "></path><path fill="rgb(0,0,0)" stroke="rgb(0,0,0)" stroke-width="1" opacity="0.047058823529411764" d="M 1.5 13 Q 4 14 2.5 15 Q 0 14 1.5 13 Z "></path><path fill="rgb(21,18,1)" stroke="rgb(21,18,1)" stroke-width="1" opacity="0.9882352941176471" d="M 7.5 3 L 7.5 4 L 7.5 3 Z "></path><path fill="rgb(21,18,1)" stroke="rgb(21,18,1)" stroke-width="1" opacity="0.9882352941176471" d="M 2.5 12 Q 5 13 3.5 14 Q 1 13 2.5 12 Z "></path><path fill="rgb(21,18,1)" stroke="rgb(21,18,1)" stroke-width="1" opacity="0.9882352941176471" d="M 13.5 12 Q 15 13 12.5 14 Q 11 13 13.5 12 Z "></path><path fill="rgb(7,7,7)" stroke="rgb(7,7,7)" stroke-width="1" opacity="1" d="M 5.5 13 L 5.5 14 L 5.5 13 Z "></path><path fill="rgb(15,13,5)" stroke="rgb(15,13,5)" stroke-width="1" opacity="0.996078431372549" d="M 1.5 10 L 1.5 11 L 1.5 10 Z "></path><path fill="rgb(12,18,26)" stroke="rgb(12,18,26)" stroke-width="1" opacity="1" d="M 10.5 4 L 10.5 5 L 10.5 4 Z "></path><path fill="rgb(12,18,26)" stroke="rgb(12,18,26)" stroke-width="1" opacity="1" d="M 10.5 13 L 10.5 14 L 10.5 13 Z "></path><path fill="rgb(33,29,1)" stroke="rgb(33,29,1)" stroke-width="1" opacity="0.5568627450980392" d="M 5.5 0 L 5.5 1 L 5.5 0 Z "></path><path fill="rgb(33,29,1)" stroke="rgb(33,29,1)" stroke-width="1" opacity="0.5568627450980392" d="M 2.5 2 L 2.5 3 L 2.5 2 Z "></path><path fill="rgb(33,29,1)" stroke="rgb(33,29,1)" stroke-width="1" opacity="0.5568627450980392" d="M 13.5 2 L 13.5 3 L 13.5 2 Z "></path><path fill="rgb(33,29,1)" stroke="rgb(33,29,1)" stroke-width="1" opacity="0.5568627450980392" d="M 0.5 5 L 0.5 6 L 0.5 5 Z "></path><path fill="rgb(33,29,1)" stroke="rgb(33,29,1)" stroke-width="1" opacity="0.5568627450980392" d="M 0.5 10 L 0.5 11 L 0.5 10 Z "></path><path fill="rgb(33,29,1)" stroke="rgb(33,29,1)" stroke-width="1" opacity="0.5568627450980392" d="M 2.5 13 L 2.5 14 L 2.5 13 Z "></path><path fill="rgb(33,29,1)" stroke="rgb(33,29,1)" stroke-width="1" opacity="0.5568627450980392" d="M 13.5 13 L 13.5 14 L 13.5 13 Z "></path><path fill="rgb(33,29,1)" stroke="rgb(33,29,1)" stroke-width="1" opacity="0.5568627450980392" d="M 5.5 15 L 5.5 16 L 5.5 15 Z "></path><path fill="rgb(33,29,1)" stroke="rgb(33,29,1)" stroke-width="1" opacity="0.5568627450980392" d="M 10.5 15 L 10.5 16 L 10.5 15 Z "></path></svg>