<svg width="32" height="32" version="1.1" xmlns="http://www.w3.org/2000/svg"><path fill="rgb(0,0,0)" stroke="rgb(0,0,0)" stroke-width="1" opacity="1" d="M 13.5 2 L 18.5 2 L 24 4 L 24 8.5 L 22.5 10 L 17.5 7 L 15.5 7 L 9.5 10 L 8 8.5 L 8 4 L 13.5 2 Z "></path><path fill="rgb(0,0,0)" stroke="rgb(0,0,0)" stroke-width="1" opacity="1" d="M 4.5 8 Q 4.37 13.13 8 14.5 Q 5 16.5 6 22.5 Q 9.32 28.18 18.5 28 L 25 24.5 Q 26.83 22.33 26 17.5 L 24 14.5 L 27 12.5 L 28.5 10 L 30 13.5 L 30 18.5 L 28 23.5 L 23.5 28 L 18.5 30 L 13.5 30 L 8.5 28 L 4 23.5 L 2 18.5 L 2 13.5 L 4.5 8 Z "></path><path fill="rgb(39,31,2)" stroke="rgb(39,31,2)" stroke-width="1" opacity="0.984313725490196" d="M 18.5 1 Q 21.5 0.5 22 2.5 L 20.5 2 Q 17.5 2.5 18.5 1 Z "></path><path fill="rgb(39,31,2)" stroke="rgb(39,31,2)" stroke-width="1" opacity="0.984313725490196" d="M 23.5 3 L 25 3.5 L 23.5 4 L 23.5 3 Z "></path><path fill="rgb(39,31,2)" stroke="rgb(39,31,2)" stroke-width="1" opacity="0.984313725490196" d="M 5.5 7 L 5.5 8 L 5.5 7 Z "></path><path fill="rgb(39,31,2)" stroke="rgb(39,31,2)" stroke-width="1" opacity="0.984313725490196" d="M 27.5 9 L 27.5 10 L 27.5 9 Z "></path><path fill="rgb(39,31,2)" stroke="rgb(39,31,2)" stroke-width="1" opacity="0.984313725490196" d="M 29.5 10 Q 32 11 30.5 12 Q 28 11 29.5 10 Z "></path><path fill="rgb(39,31,2)" stroke="rgb(39,31,2)" stroke-width="1" opacity="0.984313725490196" d="M 5.5 11 L 5.5 12 L 5.5 11 Z "></path><path fill="rgb(39,31,2)" stroke="rgb(39,31,2)" stroke-width="1" opacity="0.984313725490196" d="M 24.5 13 L 24.5 14 L 24.5 13 Z "></path><path fill="rgb(39,31,2)" stroke="rgb(39,31,2)" stroke-width="1" opacity="0.984313725490196" d="M 30.5 20 L 30.5 21 L 30.5 20 Z "></path><path fill="rgb(0,0,0)" stroke="rgb(0,0,0)" stroke-width="1" opacity="0.03529411764705882" d="M 10.5 0 L 10.5 1 L 10.5 0 Z "></path><path fill="rgb(0,0,0)" stroke="rgb(0,0,0)" stroke-width="1" opacity="0.03529411764705882" d="M 21.5 0 L 21.5 1 L 21.5 0 Z "></path><path fill="rgb(0,0,0)" stroke="rgb(0,0,0)" stroke-width="1" opacity="0.03529411764705882" d="M 8.5 1 L 8.5 2 L 8.5 1 Z "></path><path fill="rgb(0,0,0)" stroke="rgb(0,0,0)" stroke-width="1" opacity="0.03529411764705882" d="M 6.5 2 Q 8 3 5.5 4 Q 4 3 6.5 2 Z "></path><path fill="rgb(0,0,0)" stroke="rgb(0,0,0)" stroke-width="1" opacity="0.03529411764705882" d="M 25.5 2 L 25.5 3 L 25.5 2 Z "></path><path fill="rgb(0,0,0)" stroke="rgb(0,0,0)" stroke-width="1" opacity="0.03529411764705882" d="M 3.5 5 Q 5 6 2.5 7 Q 1 6 3.5 5 Z "></path><path fill="rgb(0,0,0)" stroke="rgb(0,0,0)" stroke-width="1" opacity="0.03529411764705882" d="M 29.5 6 L 29.5 7 L 29.5 6 Z "></path><path fill="rgb(0,0,0)" stroke="rgb(0,0,0)" stroke-width="1" opacity="0.03529411764705882" d="M 1.5 8 L 1.5 9 L 1.5 8 Z "></path><path fill="rgb(0,0,0)" stroke="rgb(0,0,0)" stroke-width="1" opacity="0.03529411764705882" d="M 0.5 10 L 0.5 11 L 0.5 10 Z "></path><path fill="rgb(0,0,0)" stroke="rgb(0,0,0)" stroke-width="1" opacity="0.03529411764705882" d="M 31.5 10 L 31.5 11 L 31.5 10 Z "></path><path fill="rgb(0,0,0)" stroke="rgb(0,0,0)" stroke-width="1" opacity="0.03529411764705882" d="M 0.5 21 L 0.5 22 L 0.5 21 Z "></path><path fill="rgb(0,0,0)" stroke="rgb(0,0,0)" stroke-width="1" opacity="0.03529411764705882" d="M 31.5 21 L 31.5 22 L 31.5 21 Z "></path><path fill="rgb(0,0,0)" stroke="rgb(0,0,0)" stroke-width="1" opacity="0.03529411764705882" d="M 1.5 23 L 1.5 24 L 1.5 23 Z "></path><path fill="rgb(0,0,0)" stroke="rgb(0,0,0)" stroke-width="1" opacity="0.03529411764705882" d="M 30.5 23 L 30.5 24 L 30.5 23 Z "></path><path fill="rgb(0,0,0)" stroke="rgb(0,0,0)" stroke-width="1" opacity="0.03529411764705882" d="M 29.5 25 Q 31 26 28.5 27 Q 27 26 29.5 25 Z "></path><path fill="rgb(0,0,0)" stroke="rgb(0,0,0)" stroke-width="1" opacity="0.03529411764705882" d="M 3.5 26 L 7 29.5 L 6.5 30 L 3 26.5 L 3.5 26 Z "></path><path fill="rgb(0,0,0)" stroke="rgb(0,0,0)" stroke-width="1" opacity="0.03529411764705882" d="M 26.5 28 Q 28 29 25.5 30 Q 24 29 26.5 28 Z "></path><path fill="rgb(0,0,0)" stroke="rgb(0,0,0)" stroke-width="1" opacity="0.03529411764705882" d="M 8.5 30 L 8.5 31 L 8.5 30 Z "></path><path fill="rgb(0,0,0)" stroke="rgb(0,0,0)" stroke-width="1" opacity="0.03529411764705882" d="M 23.5 30 L 23.5 31 L 23.5 30 Z "></path><path fill="rgb(0,0,0)" stroke="rgb(0,0,0)" stroke-width="1" opacity="0.03529411764705882" d="M 10.5 31 L 10.5 32 L 10.5 31 Z "></path><path fill="rgb(0,0,0)" stroke="rgb(0,0,0)" stroke-width="1" opacity="0.03529411764705882" d="M 21.5 31 L 21.5 32 L 21.5 31 Z "></path><path fill="rgb(0,0,0)" stroke="rgb(0,0,0)" stroke-width="1" opacity="0" d="M 0 0 L 10 0.5 Q 4.6 2.1 2 6.5 L 0.5 10 L 0 0 Z "></path><path fill="rgb(0,0,0)" stroke="rgb(0,0,0)" stroke-width="1" opacity="0" d="M 22.5 0 L 32 0 L 32 9.5 L 31 9.5 Q 29.87 4.13 25.5 2 L 22.5 1 L 22.5 0 Z "></path><path fill="rgb(0,0,0)" stroke="rgb(0,0,0)" stroke-width="1" opacity="0" d="M 0.5 22 L 6.5 30 L 10 31.5 L 0 32 L 0.5 22 Z "></path><path fill="rgb(0,0,0)" stroke="rgb(0,0,0)" stroke-width="1" opacity="0" d="M 31.5 22 L 32 32 L 22 31.5 Q 27.4 29.9 30 25.5 L 31.5 22 Z "></path><path fill="rgb(31,22,0)" stroke="rgb(31,22,0)" stroke-width="1" opacity="1" d="M 15.5 1 L 17 1.5 L 15.5 2 L 15.5 1 Z "></path><path fill="rgb(31,22,0)" stroke="rgb(31,22,0)" stroke-width="1" opacity="1" d="M 7.5 4 L 8 6 L 6 5.5 L 7.5 4 Z "></path><path fill="rgb(31,22,0)" stroke="rgb(31,22,0)" stroke-width="1" opacity="1" d="M 4.5 7 L 4.5 8 L 4.5 7 Z "></path><path fill="rgb(31,22,0)" stroke="rgb(31,22,0)" stroke-width="1" opacity="1" d="M 27.5 7 L 27.5 8 L 27.5 7 Z "></path><path fill="rgb(31,22,0)" stroke="rgb(31,22,0)" stroke-width="1" opacity="1" d="M 23.5 9 L 23.5 10 L 23.5 9 Z "></path><path fill="rgb(31,22,0)" stroke="rgb(31,22,0)" stroke-width="1" opacity="1" d="M 27.5 10 L 27.5 11 L 27.5 10 Z "></path><path fill="rgb(31,22,0)" stroke="rgb(31,22,0)" stroke-width="1" opacity="1" d="M 2.5 11 L 2.5 12 L 2.5 11 Z "></path><path fill="rgb(31,22,0)" stroke="rgb(31,22,0)" stroke-width="1" opacity="1" d="M 8.5 14 L 8.5 15 L 8.5 14 Z "></path><path fill="rgb(31,22,0)" stroke="rgb(31,22,0)" stroke-width="1" opacity="1" d="M 24.5 15 L 24.5 16 L 24.5 15 Z "></path><path fill="rgb(31,22,0)" stroke="rgb(31,22,0)" stroke-width="1" opacity="1" d="M 30.5 15 L 31 16.5 L 30 16.5 L 30.5 15 Z "></path><path fill="rgb(31,22,0)" stroke="rgb(31,22,0)" stroke-width="1" opacity="1" d="M 2.5 20 L 2.5 21 L 2.5 20 Z "></path><path fill="rgb(31,22,0)" stroke="rgb(31,22,0)" stroke-width="1" opacity="1" d="M 27.5 24 L 27.5 25 L 27.5 24 Z "></path><path fill="rgb(31,22,0)" stroke="rgb(31,22,0)" stroke-width="1" opacity="1" d="M 24.5 27 L 24.5 28 L 24.5 27 Z "></path><path fill="rgb(31,22,0)" stroke="rgb(31,22,0)" stroke-width="1" opacity="1" d="M 11.5 29 L 11.5 30 L 11.5 29 Z "></path><path fill="rgb(31,22,0)" stroke="rgb(31,22,0)" stroke-width="1" opacity="1" d="M 20.5 29 L 20.5 30 L 20.5 29 Z "></path><path fill="rgb(85,59,11)" stroke="rgb(85,59,11)" stroke-width="1" opacity="1" d="M 7.5 6 L 8 7.5 L 7 7.5 L 7.5 6 Z "></path><path fill="rgb(85,59,11)" stroke="rgb(85,59,11)" stroke-width="1" opacity="1" d="M 15.5 7 L 15.5 8 L 15.5 7 Z "></path><path fill="rgb(85,59,11)" stroke="rgb(85,59,11)" stroke-width="1" opacity="1" d="M 8.5 9 L 10 11.5 L 9 11.5 L 8.5 9 Z "></path><path fill="rgb(85,59,11)" stroke="rgb(85,59,11)" stroke-width="1" opacity="1" d="M 15.5 13 L 15.5 14 L 15.5 13 Z "></path><path fill="rgb(85,59,11)" stroke="rgb(85,59,11)" stroke-width="1" opacity="1" d="M 23.5 14 L 23.5 15 L 23.5 14 Z "></path><path fill="rgb(85,59,11)" stroke="rgb(85,59,11)" stroke-width="1" opacity="1" d="M 21.5 17 L 21.5 18 L 21.5 17 Z "></path><path fill="rgb(85,59,11)" stroke="rgb(85,59,11)" stroke-width="1" opacity="1" d="M 13.5 18 L 13.5 19 L 13.5 18 Z "></path><path fill="rgb(9,7,4)" stroke="rgb(9,7,4)" stroke-width="1" opacity="1" d="M 9.5 3 L 9.5 4 L 9.5 3 Z "></path><path fill="rgb(9,7,4)" stroke="rgb(9,7,4)" stroke-width="1" opacity="1" d="M 24.5 5 L 25 6.5 L 24 6.5 L 24.5 5 Z "></path><path fill="rgb(9,7,4)" stroke="rgb(9,7,4)" stroke-width="1" opacity="1" d="M 17.5 7 L 17.5 8 L 17.5 7 Z "></path><path fill="rgb(9,7,4)" stroke="rgb(9,7,4)" stroke-width="1" opacity="1" d="M 12.5 8 L 12.5 9 L 12.5 8 Z "></path><path fill="rgb(9,7,4)" stroke="rgb(9,7,4)" stroke-width="1" opacity="1" d="M 3.5 9 L 3.5 10 L 3.5 9 Z "></path><path fill="rgb(9,7,4)" stroke="rgb(9,7,4)" stroke-width="1" opacity="1" d="M 26.5 12 L 26.5 13 L 26.5 12 Z "></path><path fill="rgb(9,7,4)" stroke="rgb(9,7,4)" stroke-width="1" opacity="1" d="M 19.5 18 L 19.5 19 L 19.5 18 Z "></path><path fill="rgb(9,7,4)" stroke="rgb(9,7,4)" stroke-width="1" opacity="1" d="M 11.5 19 L 11.5 20 L 11.5 19 Z "></path><path fill="rgb(9,7,4)" stroke="rgb(9,7,4)" stroke-width="1" opacity="1" d="M 16.5 21 L 16.5 22 L 16.5 21 Z "></path><path fill="rgb(9,7,4)" stroke="rgb(9,7,4)" stroke-width="1" opacity="1" d="M 28.5 22 L 28.5 23 L 28.5 22 Z "></path><path fill="rgb(9,7,4)" stroke="rgb(9,7,4)" stroke-width="1" opacity="1" d="M 21.5 26 L 21.5 27 L 21.5 26 Z "></path><path fill="rgb(9,7,4)" stroke="rgb(9,7,4)" stroke-width="1" opacity="1" d="M 14.5 27 L 14.5 28 L 14.5 27 Z "></path><path fill="rgb(9,7,4)" stroke="rgb(9,7,4)" stroke-width="1" opacity="1" d="M 17.5 27 L 17.5 28 L 17.5 27 Z "></path><path fill="rgb(9,7,4)" stroke="rgb(9,7,4)" stroke-width="1" opacity="1" d="M 9.5 28 L 9.5 29 L 9.5 28 Z "></path><path fill="rgb(9,7,4)" stroke="rgb(9,7,4)" stroke-width="1" opacity="1" d="M 22.5 28 L 22.5 29 L 22.5 28 Z "></path><path fill="rgb(4,2,0)" stroke="rgb(4,2,0)" stroke-width="1" opacity="1" d="M 22.5 3 L 22.5 4 L 22.5 3 Z "></path><path fill="rgb(4,2,0)" stroke="rgb(4,2,0)" stroke-width="1" opacity="1" d="M 24.5 7 L 24.5 8 L 24.5 7 Z "></path><path fill="rgb(4,2,0)" stroke="rgb(4,2,0)" stroke-width="1" opacity="1" d="M 21.5 9 L 21.5 10 L 21.5 9 Z "></path><path fill="rgb(4,2,0)" stroke="rgb(4,2,0)" stroke-width="1" opacity="1" d="M 28.5 9 L 28.5 10 L 28.5 9 Z "></path><path fill="rgb(4,2,0)" stroke="rgb(4,2,0)" stroke-width="1" opacity="1" d="M 2.5 12 L 2.5 13 L 2.5 12 Z "></path><path fill="rgb(4,2,0)" stroke="rgb(4,2,0)" stroke-width="1" opacity="1" d="M 25.5 13 L 25.5 14 L 25.5 13 Z "></path><path fill="rgb(4,2,0)" stroke="rgb(4,2,0)" stroke-width="1" opacity="1" d="M 7.5 15 L 7.5 16 L 7.5 15 Z "></path><path fill="rgb(4,2,0)" stroke="rgb(4,2,0)" stroke-width="1" opacity="1" d="M 2.5 19 L 2.5 20 L 2.5 19 Z "></path><path fill="rgb(4,2,0)" stroke="rgb(4,2,0)" stroke-width="1" opacity="1" d="M 18.5 27 L 18.5 28 L 18.5 27 Z "></path><path fill="rgb(4,2,0)" stroke="rgb(4,2,0)" stroke-width="1" opacity="1" d="M 12.5 29 L 12.5 30 L 12.5 29 Z "></path><path fill="rgb(4,2,0)" stroke="rgb(4,2,0)" stroke-width="1" opacity="1" d="M 19.5 29 L 19.5 30 L 19.5 29 Z "></path><path fill="rgb(45,39,3)" stroke="rgb(45,39,3)" stroke-width="1" opacity="0.9921568627450981" d="M 12.5 1 L 14 1.5 L 12.5 2 L 12.5 1 Z "></path><path fill="rgb(45,39,3)" stroke="rgb(45,39,3)" stroke-width="1" opacity="0.9921568627450981" d="M 10.5 2 L 10.5 3 L 10.5 2 Z "></path><path fill="rgb(45,39,3)" stroke="rgb(45,39,3)" stroke-width="1" opacity="0.9921568627450981" d="M 22.5 2 L 22.5 3 L 22.5 2 Z "></path><path fill="rgb(45,39,3)" stroke="rgb(45,39,3)" stroke-width="1" opacity="0.9921568627450981" d="M 25.5 4 L 30 9.5 Q 29 11 28 8.5 L 25 4.5 L 25.5 4 Z "></path><path fill="rgb(45,39,3)" stroke="rgb(45,39,3)" stroke-width="1" opacity="0.9921568627450981" d="M 24.5 8 L 24.5 9 L 24.5 8 Z "></path><path fill="rgb(45,39,3)" stroke="rgb(45,39,3)" stroke-width="1" opacity="0.9921568627450981" d="M 30.5 12 L 31 13.5 L 30 13.5 L 30.5 12 Z "></path><path fill="rgb(45,39,3)" stroke="rgb(45,39,3)" stroke-width="1" opacity="0.9921568627450981" d="M 1.5 14 L 2 17.5 L 1 17.5 L 1.5 14 Z "></path><path fill="rgb(45,39,3)" stroke="rgb(45,39,3)" stroke-width="1" opacity="0.9921568627450981" d="M 30.5 18 L 31 19.5 L 30 19.5 L 30.5 18 Z "></path><path fill="rgb(45,39,3)" stroke="rgb(45,39,3)" stroke-width="1" opacity="0.9921568627450981" d="M 29.5 21 L 30 22.5 L 28.5 25 L 28 23.5 L 29.5 21 Z "></path><path fill="rgb(45,39,3)" stroke="rgb(45,39,3)" stroke-width="1" opacity="0.9921568627450981" d="M 14.5 30 L 18 30.5 L 14.5 31 L 14.5 30 Z "></path><path fill="rgb(205,171,49)" stroke="rgb(205,171,49)" stroke-width="1" opacity="1" d="M 6.5 7 L 9 11.5 Q 7.5 14.5 6 11.5 L 6.5 7 Z "></path><path fill="rgb(205,171,49)" stroke="rgb(205,171,49)" stroke-width="1" opacity="1" d="M 16.5 8 L 17 12 L 15 11.5 L 16.5 8 Z "></path><path fill="rgb(205,171,49)" stroke="rgb(205,171,49)" stroke-width="1" opacity="1" d="M 25 8 Q 28 6.75 27 10.5 L 24.5 13 L 24 12.5 L 25 8 Z "></path><path fill="rgb(205,171,49)" stroke="rgb(205,171,49)" stroke-width="1" opacity="1" d="M 12.5 15 L 12.5 16 L 12.5 15 Z "></path><path fill="rgb(205,171,49)" stroke="rgb(205,171,49)" stroke-width="1" opacity="1" d="M 18.5 16 L 20 16.5 L 18.5 17 L 18.5 16 Z "></path><path fill="rgb(205,171,49)" stroke="rgb(205,171,49)" stroke-width="1" opacity="1" d="M 18.5 19 L 18.5 20 L 18.5 19 Z "></path><path fill="rgb(0,0,0)" stroke="rgb(0,0,0)" stroke-width="1" opacity="0.16470588235294117" d="M 11.5 0 L 11.5 1 L 11.5 0 Z "></path><path fill="rgb(0,0,0)" stroke="rgb(0,0,0)" stroke-width="1" opacity="0.16470588235294117" d="M 20.5 0 L 20.5 1 L 20.5 0 Z "></path><path fill="rgb(0,0,0)" stroke="rgb(0,0,0)" stroke-width="1" opacity="0.16470588235294117" d="M 23.5 1 L 23.5 2 L 23.5 1 Z "></path><path fill="rgb(0,0,0)" stroke="rgb(0,0,0)" stroke-width="1" opacity="0.16470588235294117" d="M 26.5 3 L 29 5.5 L 28.5 6 L 26 3.5 L 26.5 3 Z "></path><path fill="rgb(0,0,0)" stroke="rgb(0,0,0)" stroke-width="1" opacity="0.16470588235294117" d="M 4.5 4 L 4.5 5 L 4.5 4 Z "></path><path fill="rgb(0,0,0)" stroke="rgb(0,0,0)" stroke-width="1" opacity="0.16470588235294117" d="M 30.5 8 L 30.5 9 L 30.5 8 Z "></path><path fill="rgb(0,0,0)" stroke="rgb(0,0,0)" stroke-width="1" opacity="0.16470588235294117" d="M 0.5 11 L 0.5 12 L 0.5 11 Z "></path><path fill="rgb(0,0,0)" stroke="rgb(0,0,0)" stroke-width="1" opacity="0.16470588235294117" d="M 31.5 11 L 31.5 12 L 31.5 11 Z "></path><path fill="rgb(0,0,0)" stroke="rgb(0,0,0)" stroke-width="1" opacity="0.16470588235294117" d="M 0.5 20 L 0.5 21 L 0.5 20 Z "></path><path fill="rgb(0,0,0)" stroke="rgb(0,0,0)" stroke-width="1" opacity="0.16470588235294117" d="M 31.5 20 L 31.5 21 L 31.5 20 Z "></path><path fill="rgb(0,0,0)" stroke="rgb(0,0,0)" stroke-width="1" opacity="0.16470588235294117" d="M 27.5 27 L 27.5 28 L 27.5 27 Z "></path><path fill="rgb(0,0,0)" stroke="rgb(0,0,0)" stroke-width="1" opacity="0.16470588235294117" d="M 11.5 31 L 11.5 32 L 11.5 31 Z "></path><path fill="rgb(0,0,0)" stroke="rgb(0,0,0)" stroke-width="1" opacity="0.16470588235294117" d="M 20.5 31 L 20.5 32 L 20.5 31 Z "></path><path fill="rgb(252,189,96)" stroke="rgb(252,189,96)" stroke-width="1" opacity="1" d="M 13.5 15 L 14 16.5 L 13 16.5 L 13.5 15 Z "></path><path fill="rgb(252,189,96)" stroke="rgb(252,189,96)" stroke-width="1" opacity="1" d="M 18.5 15 L 20 15.5 L 18.5 16 L 18.5 15 Z "></path><path fill="rgb(252,189,96)" stroke="rgb(252,189,96)" stroke-width="1" opacity="1" d="M 8.5 16 L 8.5 17 L 8.5 16 Z "></path><path fill="rgb(252,189,96)" stroke="rgb(252,189,96)" stroke-width="1" opacity="1" d="M 15.5 18 L 18 19.5 L 16.5 19 L 14.5 20 Q 13 19 15.5 18 Z "></path><path fill="rgb(48,60,74)" stroke="rgb(48,60,74)" stroke-width="1" opacity="1" d="M 13.5 8 L 15 8.5 L 13.5 9 L 13.5 8 Z "></path><path fill="rgb(48,60,74)" stroke="rgb(48,60,74)" stroke-width="1" opacity="1" d="M 18.5 8 L 18.5 9 L 18.5 8 Z "></path><path fill="rgb(48,60,74)" stroke="rgb(48,60,74)" stroke-width="1" opacity="1" d="M 20.5 9 Q 23.5 10.5 20.5 12 L 18 10.5 L 19.5 11 L 21 10.5 L 20.5 9 Z "></path><path fill="rgb(48,60,74)" stroke="rgb(48,60,74)" stroke-width="1" opacity="1" d="M 14.5 10 L 14.5 13 L 10 11.5 L 14.5 10 Z "></path><path fill="rgb(48,60,74)" stroke="rgb(48,60,74)" stroke-width="1" opacity="1" d="M 22.5 12 L 23 14 L 21 13.5 L 22.5 12 Z "></path><path fill="rgb(48,60,74)" stroke="rgb(48,60,74)" stroke-width="1" opacity="1" d="M 17.5 13 L 17.5 14 L 17.5 13 Z "></path><path fill="rgb(48,60,74)" stroke="rgb(48,60,74)" stroke-width="1" opacity="1" d="M 7.5 16 L 7.5 17 L 7.5 16 Z "></path><path fill="rgb(48,60,74)" stroke="rgb(48,60,74)" stroke-width="1" opacity="1" d="M 24.5 16 L 24.5 17 L 24.5 16 Z "></path><path fill="rgb(48,60,74)" stroke="rgb(48,60,74)" stroke-width="1" opacity="1" d="M 11.5 18 Q 14 19 12.5 20 Q 10 19 11.5 18 Z "></path><path fill="rgb(48,60,74)" stroke="rgb(48,60,74)" stroke-width="1" opacity="1" d="M 16.5 22 L 16.5 23 L 16.5 22 Z "></path><path fill="rgb(48,60,74)" stroke="rgb(48,60,74)" stroke-width="1" opacity="1" d="M 24.5 23 L 25 23.5 L 22.5 26 L 22 25.5 L 24.5 23 Z "></path><path fill="rgb(48,60,74)" stroke="rgb(48,60,74)" stroke-width="1" opacity="1" d="M 12.5 26 L 12.5 27 L 12.5 26 Z "></path><path fill="rgb(35,30,6)" stroke="rgb(35,30,6)" stroke-width="1" opacity="1" d="M 14.5 1 L 14.5 2 L 14.5 1 Z "></path><path fill="rgb(35,30,6)" stroke="rgb(35,30,6)" stroke-width="1" opacity="1" d="M 17.5 1 L 17.5 2 L 17.5 1 Z "></path><path fill="rgb(35,30,6)" stroke="rgb(35,30,6)" stroke-width="1" opacity="1" d="M 14.5 11 L 14.5 12 L 14.5 11 Z "></path><path fill="rgb(35,30,6)" stroke="rgb(35,30,6)" stroke-width="1" opacity="1" d="M 8.5 13 L 8.5 14 L 8.5 13 Z "></path><path fill="rgb(35,30,6)" stroke="rgb(35,30,6)" stroke-width="1" opacity="1" d="M 30.5 14 L 30.5 15 L 30.5 14 Z "></path><path fill="rgb(35,30,6)" stroke="rgb(35,30,6)" stroke-width="1" opacity="1" d="M 30.5 17 L 30.5 18 L 30.5 17 Z "></path><path fill="rgb(35,30,6)" stroke="rgb(35,30,6)" stroke-width="1" opacity="1" d="M 4.5 24 L 4.5 25 L 4.5 24 Z "></path><path fill="rgb(35,30,6)" stroke="rgb(35,30,6)" stroke-width="1" opacity="1" d="M 7.5 27 L 7.5 28 L 7.5 27 Z "></path><path fill="rgb(118,94,29)" stroke="rgb(118,94,29)" stroke-width="1" opacity="1" d="M 6.5 6 L 6.5 7 L 6.5 6 Z "></path><path fill="rgb(118,94,29)" stroke="rgb(118,94,29)" stroke-width="1" opacity="1" d="M 16.5 7 L 16.5 8 L 16.5 7 Z "></path><path fill="rgb(118,94,29)" stroke="rgb(118,94,29)" stroke-width="1" opacity="1" d="M 26.5 7 L 26.5 8 L 26.5 7 Z "></path><path fill="rgb(118,94,29)" stroke="rgb(118,94,29)" stroke-width="1" opacity="1" d="M 5.5 8 L 5.5 9 L 5.5 8 Z "></path><path fill="rgb(118,94,29)" stroke="rgb(118,94,29)" stroke-width="1" opacity="1" d="M 7.5 8 L 7.5 9 L 7.5 8 Z "></path><path fill="rgb(118,94,29)" stroke="rgb(118,94,29)" stroke-width="1" opacity="1" d="M 17.5 9 L 18 12.5 Q 17 15 16 13.5 L 17.5 9 Z "></path><path fill="rgb(118,94,29)" stroke="rgb(118,94,29)" stroke-width="1" opacity="1" d="M 5.5 10 L 5.5 11 L 5.5 10 Z "></path><path fill="rgb(118,94,29)" stroke="rgb(118,94,29)" stroke-width="1" opacity="1" d="M 23.5 11 L 23.5 12 L 23.5 11 Z "></path><path fill="rgb(118,94,29)" stroke="rgb(118,94,29)" stroke-width="1" opacity="1" d="M 26.5 11 Q 28 12 25.5 13 Q 24 12 26.5 11 Z "></path><path fill="rgb(118,94,29)" stroke="rgb(118,94,29)" stroke-width="1" opacity="1" d="M 10.5 17 L 10.5 18 L 10.5 17 Z "></path><path fill="rgb(118,94,29)" stroke="rgb(118,94,29)" stroke-width="1" opacity="1" d="M 12.5 17 L 12.5 18 L 12.5 17 Z "></path><path fill="rgb(118,94,29)" stroke="rgb(118,94,29)" stroke-width="1" opacity="1" d="M 15.5 23 Q 17 24 14.5 25 Q 13 24 15.5 23 Z "></path><path fill="rgb(158,127,31)" stroke="rgb(158,127,31)" stroke-width="1" opacity="1" d="M 25.5 6 L 26 7.5 L 25 7.5 L 25.5 6 Z "></path><path fill="rgb(158,127,31)" stroke="rgb(158,127,31)" stroke-width="1" opacity="1" d="M 15.5 8 L 16 10.5 L 15 10.5 L 15.5 8 Z "></path><path fill="rgb(158,127,31)" stroke="rgb(158,127,31)" stroke-width="1" opacity="1" d="M 5.5 9 L 5.5 10 L 5.5 9 Z "></path><path fill="rgb(158,127,31)" stroke="rgb(158,127,31)" stroke-width="1" opacity="1" d="M 24.5 9 Q 26 10 23.5 11 Q 22 10 24.5 9 Z "></path><path fill="rgb(158,127,31)" stroke="rgb(158,127,31)" stroke-width="1" opacity="1" d="M 8.5 12 L 8.5 13 L 8.5 12 Z "></path><path fill="rgb(158,127,31)" stroke="rgb(158,127,31)" stroke-width="1" opacity="1" d="M 15.5 12 L 17 12.5 L 15.5 13 L 15.5 12 Z "></path><path fill="rgb(156,85,7)" stroke="rgb(156,85,7)" stroke-width="1" opacity="1" d="M 9.5 14 L 16 14.5 L 9.5 15 L 9.5 14 Z "></path><path fill="rgb(156,85,7)" stroke="rgb(156,85,7)" stroke-width="1" opacity="1" d="M 17.5 14 L 23 14.5 L 17.5 15 L 17.5 14 Z "></path><path fill="rgb(156,85,7)" stroke="rgb(156,85,7)" stroke-width="1" opacity="1" d="M 19.5 17 L 19.5 18 L 19.5 17 Z "></path><path fill="rgb(162,84,1)" stroke="rgb(162,84,1)" stroke-width="1" opacity="1" d="M 16.5 14 L 16.5 15 L 16.5 14 Z "></path><path fill="rgb(162,84,1)" stroke="rgb(162,84,1)" stroke-width="1" opacity="1" d="M 8.5 15 L 8.5 16 L 8.5 15 Z "></path><path fill="rgb(162,84,1)" stroke="rgb(162,84,1)" stroke-width="1" opacity="1" d="M 23.5 15 L 23.5 16 L 23.5 15 Z "></path><path fill="rgb(162,84,1)" stroke="rgb(162,84,1)" stroke-width="1" opacity="1" d="M 13.5 17 L 13.5 18 L 13.5 17 Z "></path><path fill="rgb(162,84,1)" stroke="rgb(162,84,1)" stroke-width="1" opacity="1" d="M 18.5 18 L 18.5 19 L 18.5 18 Z "></path><path fill="rgb(178,44,5)" stroke="rgb(178,44,5)" stroke-width="1" opacity="1" d="M 15 24 L 18 24.5 L 15 26 L 15 24 Z "></path><path fill="rgb(1,1,0)" stroke="rgb(1,1,0)" stroke-width="1" opacity="1" d="M 12.5 2 L 12.5 3 L 12.5 2 Z "></path><path fill="rgb(1,1,0)" stroke="rgb(1,1,0)" stroke-width="1" opacity="1" d="M 19.5 2 L 19.5 3 L 19.5 2 Z "></path><path fill="rgb(1,1,0)" stroke="rgb(1,1,0)" stroke-width="1" opacity="1" d="M 29.5 12 L 29.5 13 L 29.5 12 Z "></path><path fill="rgb(1,1,0)" stroke="rgb(1,1,0)" stroke-width="1" opacity="1" d="M 6.5 17 L 6.5 18 L 6.5 17 Z "></path><path fill="rgb(1,1,0)" stroke="rgb(1,1,0)" stroke-width="1" opacity="1" d="M 29.5 19 L 29.5 20 L 29.5 19 Z "></path><path fill="rgb(1,1,0)" stroke="rgb(1,1,0)" stroke-width="1" opacity="1" d="M 6.5 22 L 6.5 23 L 6.5 22 Z "></path><path fill="rgb(1,1,0)" stroke="rgb(1,1,0)" stroke-width="1" opacity="1" d="M 24.5 24 Q 26 25 23.5 26 Q 22 25 24.5 24 Z "></path><path fill="rgb(19,16,0)" stroke="rgb(19,16,0)" stroke-width="1" opacity="0.7647058823529411" d="M 14.5 0 L 18 0.5 L 14.5 1 L 14.5 0 Z "></path><path fill="rgb(19,16,0)" stroke="rgb(19,16,0)" stroke-width="1" opacity="0.7647058823529411" d="M 10.5 1 L 10.5 2 L 10.5 1 Z "></path><path fill="rgb(19,16,0)" stroke="rgb(19,16,0)" stroke-width="1" opacity="0.7647058823529411" d="M 21.5 1 L 21.5 2 L 21.5 1 Z "></path><path fill="rgb(19,16,0)" stroke="rgb(19,16,0)" stroke-width="1" opacity="0.7647058823529411" d="M 8.5 2 L 8.5 3 L 8.5 2 Z "></path><path fill="rgb(19,16,0)" stroke="rgb(19,16,0)" stroke-width="1" opacity="0.7647058823529411" d="M 23.5 2 L 23.5 3 L 23.5 2 Z "></path><path fill="rgb(19,16,0)" stroke="rgb(19,16,0)" stroke-width="1" opacity="0.7647058823529411" d="M 2.5 8 L 2.5 9 L 2.5 8 Z "></path><path fill="rgb(19,16,0)" stroke="rgb(19,16,0)" stroke-width="1" opacity="0.7647058823529411" d="M 29.5 8 L 29.5 9 L 29.5 8 Z "></path><path fill="rgb(19,16,0)" stroke="rgb(19,16,0)" stroke-width="1" opacity="0.7647058823529411" d="M 1.5 10 L 1.5 11 L 1.5 10 Z "></path><path fill="rgb(19,16,0)" stroke="rgb(19,16,0)" stroke-width="1" opacity="0.7647058823529411" d="M 30.5 10 L 30.5 11 L 30.5 10 Z "></path><path fill="rgb(19,16,0)" stroke="rgb(19,16,0)" stroke-width="1" opacity="0.7647058823529411" d="M 0.5 14 L 1 17.5 L 0 17.5 L 0.5 14 Z "></path><path fill="rgb(19,16,0)" stroke="rgb(19,16,0)" stroke-width="1" opacity="0.7647058823529411" d="M 31.5 14 L 32 17.5 L 31 17.5 L 31.5 14 Z "></path><path fill="rgb(19,16,0)" stroke="rgb(19,16,0)" stroke-width="1" opacity="0.7647058823529411" d="M 1.5 21 L 1.5 22 L 1.5 21 Z "></path><path fill="rgb(19,16,0)" stroke="rgb(19,16,0)" stroke-width="1" opacity="0.7647058823529411" d="M 30.5 21 L 30.5 22 L 30.5 21 Z "></path><path fill="rgb(19,16,0)" stroke="rgb(19,16,0)" stroke-width="1" opacity="0.7647058823529411" d="M 2.5 23 L 2.5 24 L 2.5 23 Z "></path><path fill="rgb(19,16,0)" stroke="rgb(19,16,0)" stroke-width="1" opacity="0.7647058823529411" d="M 29.5 23 L 29.5 24 L 29.5 23 Z "></path><path fill="rgb(19,16,0)" stroke="rgb(19,16,0)" stroke-width="1" opacity="0.7647058823529411" d="M 8.5 29 L 8.5 30 L 8.5 29 Z "></path><path fill="rgb(19,16,0)" stroke="rgb(19,16,0)" stroke-width="1" opacity="0.7647058823529411" d="M 23.5 29 L 23.5 30 L 23.5 29 Z "></path><path fill="rgb(19,16,0)" stroke="rgb(19,16,0)" stroke-width="1" opacity="0.7647058823529411" d="M 10.5 30 L 10.5 31 L 10.5 30 Z "></path><path fill="rgb(19,16,0)" stroke="rgb(19,16,0)" stroke-width="1" opacity="0.7647058823529411" d="M 21.5 30 L 21.5 31 L 21.5 30 Z "></path><path fill="rgb(19,16,0)" stroke="rgb(19,16,0)" stroke-width="1" opacity="0.7647058823529411" d="M 14.5 31 L 18 31.5 L 14.5 32 L 14.5 31 Z "></path><path fill="rgb(8,6,0)" stroke="rgb(8,6,0)" stroke-width="1" opacity="0.6470588235294118" d="M 13.5 0 L 13.5 1 L 13.5 0 Z "></path><path fill="rgb(8,6,0)" stroke="rgb(8,6,0)" stroke-width="1" opacity="0.6470588235294118" d="M 18.5 0 L 18.5 1 L 18.5 0 Z "></path><path fill="rgb(8,6,0)" stroke="rgb(8,6,0)" stroke-width="1" opacity="0.6470588235294118" d="M 25.5 3 L 29 6.5 L 28.5 7 L 25 3.5 L 25.5 3 Z "></path><path fill="rgb(8,6,0)" stroke="rgb(8,6,0)" stroke-width="1" opacity="0.6470588235294118" d="M 5.5 4 Q 7 5 4.5 6 Q 3 5 5.5 4 Z "></path><path fill="rgb(8,6,0)" stroke="rgb(8,6,0)" stroke-width="1" opacity="0.6470588235294118" d="M 0.5 13 L 0.5 14 L 0.5 13 Z "></path><path fill="rgb(8,6,0)" stroke="rgb(8,6,0)" stroke-width="1" opacity="0.6470588235294118" d="M 31.5 13 L 31.5 14 L 31.5 13 Z "></path><path fill="rgb(8,6,0)" stroke="rgb(8,6,0)" stroke-width="1" opacity="0.6470588235294118" d="M 0.5 18 L 0.5 19 L 0.5 18 Z "></path><path fill="rgb(8,6,0)" stroke="rgb(8,6,0)" stroke-width="1" opacity="0.6470588235294118" d="M 31.5 18 L 31.5 19 L 31.5 18 Z "></path><path fill="rgb(8,6,0)" stroke="rgb(8,6,0)" stroke-width="1" opacity="0.6470588235294118" d="M 4.5 26 Q 7 27 5.5 28 Q 3 27 4.5 26 Z "></path><path fill="rgb(8,6,0)" stroke="rgb(8,6,0)" stroke-width="1" opacity="0.6470588235294118" d="M 27.5 26 Q 29 27 26.5 28 Q 25 27 27.5 26 Z "></path><path fill="rgb(8,6,0)" stroke="rgb(8,6,0)" stroke-width="1" opacity="0.6470588235294118" d="M 13.5 31 L 13.5 32 L 13.5 31 Z "></path><path fill="rgb(8,6,0)" stroke="rgb(8,6,0)" stroke-width="1" opacity="0.6470588235294118" d="M 18.5 31 L 18.5 32 L 18.5 31 Z "></path><path fill="rgb(201,202,202)" stroke="rgb(201,202,202)" stroke-width="1" opacity="1" d="M 9.5 17 L 9.5 18 L 9.5 17 Z "></path><path fill="rgb(201,202,202)" stroke="rgb(201,202,202)" stroke-width="1" opacity="1" d="M 7.5 18 L 8 19.5 L 7 19.5 L 7.5 18 Z "></path><path fill="rgb(201,202,202)" stroke="rgb(201,202,202)" stroke-width="1" opacity="1" d="M 13.5 22 L 13.5 23 L 13.5 22 Z "></path><path fill="rgb(201,202,202)" stroke="rgb(201,202,202)" stroke-width="1" opacity="1" d="M 17.5 22 L 17.5 23 L 17.5 22 Z "></path><path fill="rgb(201,202,202)" stroke="rgb(201,202,202)" stroke-width="1" opacity="1" d="M 20.5 22 L 20.5 23 L 20.5 22 Z "></path><path fill="rgb(201,202,202)" stroke="rgb(201,202,202)" stroke-width="1" opacity="1" d="M 11.5 24 L 11.5 25 L 11.5 24 Z "></path><path fill="rgb(201,202,202)" stroke="rgb(201,202,202)" stroke-width="1" opacity="1" d="M 13.5 24 L 14 25.5 L 13 25.5 L 13.5 24 Z "></path><path fill="rgb(201,202,202)" stroke="rgb(201,202,202)" stroke-width="1" opacity="1" d="M 20.5 24 L 22 24.5 L 18.5 26 L 18.5 25 L 20.5 24 Z "></path><path fill="rgb(60,90,127)" stroke="rgb(60,90,127)" stroke-width="1" opacity="1" d="M 12.5 9 Q 15.13 8.33 14 11 L 11 10.5 L 12.5 9 Z "></path><path fill="rgb(60,90,127)" stroke="rgb(60,90,127)" stroke-width="1" opacity="1" d="M 18.5 9 L 22 11.5 L 20.5 14 Q 16.75 15 18 12 L 21 11.5 L 18 9.5 L 18.5 9 Z "></path><path fill="rgb(60,90,127)" stroke="rgb(60,90,127)" stroke-width="1" opacity="1" d="M 9 12 L 14 12 L 14 14 L 9 14 L 9 12 Z "></path><path fill="rgb(60,90,127)" stroke="rgb(60,90,127)" stroke-width="1" opacity="1" d="M 24.5 17 L 24.5 18 L 24.5 17 Z "></path><path fill="rgb(60,90,127)" stroke="rgb(60,90,127)" stroke-width="1" opacity="1" d="M 10.5 19 L 10.5 20 L 10.5 19 Z "></path><path fill="rgb(60,90,127)" stroke="rgb(60,90,127)" stroke-width="1" opacity="1" d="M 23.5 23 L 23.5 24 L 23.5 23 Z "></path><path fill="rgb(240,138,2)" stroke="rgb(240,138,2)" stroke-width="1" opacity="1" d="M 21.5 15 Q 24.13 14.33 23 17 L 20 16.5 L 21.5 15 Z "></path><path fill="rgb(240,138,2)" stroke="rgb(240,138,2)" stroke-width="1" opacity="1" d="M 10.5 16 L 13 16.5 L 10.5 17 L 10.5 16 Z "></path><path fill="rgb(240,138,2)" stroke="rgb(240,138,2)" stroke-width="1" opacity="1" d="M 18.5 17 L 18.5 18 L 18.5 17 Z "></path><path fill="rgb(240,138,2)" stroke="rgb(240,138,2)" stroke-width="1" opacity="1" d="M 14.5 18 L 14.5 19 L 14.5 18 Z "></path><path fill="rgb(254,154,7)" stroke="rgb(254,154,7)" stroke-width="1" opacity="1" d="M 9 15 L 12 15.5 L 9.5 17 L 9 15 Z "></path><path fill="rgb(254,154,7)" stroke="rgb(254,154,7)" stroke-width="1" opacity="1" d="M 14 15 L 18 15 L 18 18.5 L 16.5 18 Q 12.33 19.13 14 15 Z "></path><path fill="rgb(254,154,7)" stroke="rgb(254,154,7)" stroke-width="1" opacity="1" d="M 20.5 15 L 20.5 16 L 20.5 15 Z "></path><path fill="rgb(28,32,36)" stroke="rgb(28,32,36)" stroke-width="1" opacity="1" d="M 19.5 8 L 19.5 9 L 19.5 8 Z "></path><path fill="rgb(28,32,36)" stroke="rgb(28,32,36)" stroke-width="1" opacity="1" d="M 11.5 9 Q 13 10 10.5 11 Q 9 10 11.5 9 Z "></path><path fill="rgb(28,32,36)" stroke="rgb(28,32,36)" stroke-width="1" opacity="1" d="M 18.5 11 L 18.5 12 L 18.5 11 Z "></path><path fill="rgb(28,32,36)" stroke="rgb(28,32,36)" stroke-width="1" opacity="1" d="M 23.5 13 L 23.5 14 L 23.5 13 Z "></path><path fill="rgb(28,32,36)" stroke="rgb(28,32,36)" stroke-width="1" opacity="1" d="M 25.5 17 L 25.5 18 L 25.5 17 Z "></path><path fill="rgb(28,32,36)" stroke="rgb(28,32,36)" stroke-width="1" opacity="1" d="M 6.5 18 L 7 20.5 L 6 20.5 L 6.5 18 Z "></path><path fill="rgb(28,32,36)" stroke="rgb(28,32,36)" stroke-width="1" opacity="1" d="M 12.5 18 L 12.5 19 L 12.5 18 Z "></path><path fill="rgb(28,32,36)" stroke="rgb(28,32,36)" stroke-width="1" opacity="1" d="M 21.5 18 L 22 20 L 20 19.5 L 21.5 18 Z "></path><path fill="rgb(28,32,36)" stroke="rgb(28,32,36)" stroke-width="1" opacity="1" d="M 15.5 21 L 15.5 22 L 15.5 21 Z "></path><path fill="rgb(28,32,36)" stroke="rgb(28,32,36)" stroke-width="1" opacity="1" d="M 25.5 22 L 25.5 23 L 25.5 22 Z "></path><path fill="rgb(28,32,36)" stroke="rgb(28,32,36)" stroke-width="1" opacity="1" d="M 8.5 24 Q 11 25 9.5 26 Q 7 25 8.5 24 Z "></path><path fill="rgb(28,32,36)" stroke="rgb(28,32,36)" stroke-width="1" opacity="1" d="M 11.5 26 L 11.5 27 L 11.5 26 Z "></path><path fill="rgb(28,32,36)" stroke="rgb(28,32,36)" stroke-width="1" opacity="1" d="M 20.5 26 L 20.5 27 L 20.5 26 Z "></path><path fill="rgb(28,32,36)" stroke="rgb(28,32,36)" stroke-width="1" opacity="1" d="M 16.5 27 L 16.5 28 L 16.5 27 Z "></path><path fill="rgb(171,186,205)" stroke="rgb(171,186,205)" stroke-width="1" opacity="1" d="M 9.5 18 L 10 20.5 L 8.5 23 L 7 20.5 L 9.5 18 Z "></path><path fill="rgb(171,186,205)" stroke="rgb(171,186,205)" stroke-width="1" opacity="1" d="M 22.5 18 L 22.5 19 L 22.5 18 Z "></path><path fill="rgb(171,186,205)" stroke="rgb(171,186,205)" stroke-width="1" opacity="1" d="M 11.5 20 L 11.5 21 L 11.5 20 Z "></path><path fill="rgb(171,186,205)" stroke="rgb(171,186,205)" stroke-width="1" opacity="1" d="M 14.5 21 L 14.5 22 L 14.5 21 Z "></path><path fill="rgb(171,186,205)" stroke="rgb(171,186,205)" stroke-width="1" opacity="1" d="M 19.5 23 L 19.5 24 L 19.5 23 Z "></path><path fill="rgb(171,186,205)" stroke="rgb(171,186,205)" stroke-width="1" opacity="1" d="M 12.5 25 L 12.5 26 L 12.5 25 Z "></path><path fill="rgb(171,186,205)" stroke="rgb(171,186,205)" stroke-width="1" opacity="1" d="M 20.5 25 L 20.5 26 L 20.5 25 Z "></path><path fill="rgb(75,74,73)" stroke="rgb(75,74,73)" stroke-width="1" opacity="1" d="M 17.5 8 L 17.5 9 L 17.5 8 Z "></path><path fill="rgb(75,74,73)" stroke="rgb(75,74,73)" stroke-width="1" opacity="1" d="M 14.5 9 L 14.5 10 L 14.5 9 Z "></path><path fill="rgb(75,74,73)" stroke="rgb(75,74,73)" stroke-width="1" opacity="1" d="M 23.5 12 L 23.5 13 L 23.5 12 Z "></path><path fill="rgb(75,74,73)" stroke="rgb(75,74,73)" stroke-width="1" opacity="1" d="M 14.5 13 L 14.5 14 L 14.5 13 Z "></path><path fill="rgb(75,74,73)" stroke="rgb(75,74,73)" stroke-width="1" opacity="1" d="M 20.5 18 Q 22 19 19.5 20 Q 18 19 20.5 18 Z "></path><path fill="rgb(75,74,73)" stroke="rgb(75,74,73)" stroke-width="1" opacity="1" d="M 25.5 18 L 25.5 19 L 25.5 18 Z "></path><path fill="rgb(75,74,73)" stroke="rgb(75,74,73)" stroke-width="1" opacity="1" d="M 17.5 21 L 17.5 22 L 17.5 21 Z "></path><path fill="rgb(75,74,73)" stroke="rgb(75,74,73)" stroke-width="1" opacity="1" d="M 25.5 21 L 25.5 22 L 25.5 21 Z "></path><path fill="rgb(75,74,73)" stroke="rgb(75,74,73)" stroke-width="1" opacity="1" d="M 19.5 26 L 19.5 27 L 19.5 26 Z "></path><path fill="rgb(233,234,234)" stroke="rgb(233,234,234)" stroke-width="1" opacity="1" d="M 8.5 17 L 9 18.5 L 8 18.5 L 8.5 17 Z "></path><path fill="rgb(233,234,234)" stroke="rgb(233,234,234)" stroke-width="1" opacity="1" d="M 15.5 19 L 17 19.5 L 14 21.5 L 14.5 23 L 12.5 22 L 13 23.5 L 12.5 25 Q 10.5 24.5 11 21.5 L 15.5 19 Z "></path><path fill="rgb(233,234,234)" stroke="rgb(233,234,234)" stroke-width="1" opacity="1" d="M 18 20 Q 21 19.25 22 21.5 Q 23.13 24.83 20.5 24 L 19 24.5 L 21 22.5 L 20.5 22 L 18.5 23 L 18 20 Z "></path><path fill="rgb(140,159,182)" stroke="rgb(140,159,182)" stroke-width="1" opacity="1" d="M 23.5 18 L 25 20.5 L 23 21 L 23.5 18 Z "></path><path fill="rgb(140,159,182)" stroke="rgb(140,159,182)" stroke-width="1" opacity="1" d="M 17.5 20 L 17.5 21 L 17.5 20 Z "></path><path fill="rgb(140,159,182)" stroke="rgb(140,159,182)" stroke-width="1" opacity="1" d="M 7.5 21 L 7.5 22 L 7.5 21 Z "></path><path fill="rgb(140,159,182)" stroke="rgb(140,159,182)" stroke-width="1" opacity="1" d="M 9.5 21 Q 9.58 24.42 12 25.5 L 11.5 26 L 9 23.5 L 9.5 21 Z "></path><path fill="rgb(140,159,182)" stroke="rgb(140,159,182)" stroke-width="1" opacity="1" d="M 12.5 22 L 12.5 23 L 12.5 22 Z "></path><path fill="rgb(140,159,182)" stroke="rgb(140,159,182)" stroke-width="1" opacity="1" d="M 19.5 22 L 19.5 23 L 19.5 22 Z "></path><path fill="rgb(140,159,182)" stroke="rgb(140,159,182)" stroke-width="1" opacity="1" d="M 22.5 23 L 23 24.5 L 22 24.5 L 22.5 23 Z "></path><path fill="rgb(17,14,3)" stroke="rgb(17,14,3)" stroke-width="1" opacity="1" d="M 11.5 2 L 11.5 3 L 11.5 2 Z "></path><path fill="rgb(17,14,3)" stroke="rgb(17,14,3)" stroke-width="1" opacity="1" d="M 20.5 2 L 20.5 3 L 20.5 2 Z "></path><path fill="rgb(17,14,3)" stroke="rgb(17,14,3)" stroke-width="1" opacity="1" d="M 24.5 4 L 24.5 5 L 24.5 4 Z "></path><path fill="rgb(17,14,3)" stroke="rgb(17,14,3)" stroke-width="1" opacity="1" d="M 5.5 6 L 5.5 7 L 5.5 6 Z "></path><path fill="rgb(17,14,3)" stroke="rgb(17,14,3)" stroke-width="1" opacity="1" d="M 27.5 8 L 27.5 9 L 27.5 8 Z "></path><path fill="rgb(17,14,3)" stroke="rgb(17,14,3)" stroke-width="1" opacity="1" d="M 29.5 11 L 29.5 12 L 29.5 11 Z "></path><path fill="rgb(17,14,3)" stroke="rgb(17,14,3)" stroke-width="1" opacity="1" d="M 7.5 13 L 7.5 14 L 7.5 13 Z "></path><path fill="rgb(17,14,3)" stroke="rgb(17,14,3)" stroke-width="1" opacity="1" d="M 29.5 20 L 29.5 21 L 29.5 20 Z "></path><path fill="rgb(17,14,3)" stroke="rgb(17,14,3)" stroke-width="1" opacity="1" d="M 6.5 21 L 6.5 22 L 6.5 21 Z "></path><path fill="rgb(17,14,3)" stroke="rgb(17,14,3)" stroke-width="1" opacity="1" d="M 3.5 22 L 3.5 23 L 3.5 22 Z "></path><path fill="rgb(17,14,3)" stroke="rgb(17,14,3)" stroke-width="1" opacity="1" d="M 7.5 23 L 7.5 24 L 7.5 23 Z "></path><path fill="rgb(17,14,3)" stroke="rgb(17,14,3)" stroke-width="1" opacity="1" d="M 5.5 25 Q 8 26 6.5 27 Q 4 26 5.5 25 Z "></path><path fill="rgb(17,14,3)" stroke="rgb(17,14,3)" stroke-width="1" opacity="1" d="M 26.5 25 Q 28 26 25.5 27 Q 24 26 26.5 25 Z "></path><path fill="rgb(17,14,3)" stroke="rgb(17,14,3)" stroke-width="1" opacity="1" d="M 15.5 27 L 15.5 28 L 15.5 27 Z "></path><path fill="rgb(117,121,127)" stroke="rgb(117,121,127)" stroke-width="1" opacity="1" d="M 23.5 17 L 23.5 18 L 23.5 17 Z "></path><path fill="rgb(117,121,127)" stroke="rgb(117,121,127)" stroke-width="1" opacity="1" d="M 24.5 19 L 24.5 20 L 24.5 19 Z "></path><path fill="rgb(117,121,127)" stroke="rgb(117,121,127)" stroke-width="1" opacity="1" d="M 16.5 20 L 16.5 21 L 16.5 20 Z "></path><path fill="rgb(117,121,127)" stroke="rgb(117,121,127)" stroke-width="1" opacity="1" d="M 7.5 22 L 7.5 23 L 7.5 22 Z "></path><path fill="rgb(117,121,127)" stroke="rgb(117,121,127)" stroke-width="1" opacity="1" d="M 15.5 22 Q 17 23 14.5 24 Q 13 23 15.5 22 Z "></path><path fill="rgb(117,121,127)" stroke="rgb(117,121,127)" stroke-width="1" opacity="1" d="M 18.5 23 L 18.5 24 L 18.5 23 Z "></path><path fill="rgb(117,121,127)" stroke="rgb(117,121,127)" stroke-width="1" opacity="1" d="M 14.5 26 L 16 26.5 L 14.5 27 L 14.5 26 Z "></path><path fill="rgb(117,121,127)" stroke="rgb(117,121,127)" stroke-width="1" opacity="1" d="M 17.5 26 L 19 26.5 L 17.5 27 L 17.5 26 Z "></path><path fill="rgb(3,2,0)" stroke="rgb(3,2,0)" stroke-width="1" opacity="0.5176470588235295" d="M 12.5 0 L 12.5 1 L 12.5 0 Z "></path><path fill="rgb(3,2,0)" stroke="rgb(3,2,0)" stroke-width="1" opacity="0.5176470588235295" d="M 19.5 0 L 19.5 1 L 19.5 0 Z "></path><path fill="rgb(3,2,0)" stroke="rgb(3,2,0)" stroke-width="1" opacity="0.5176470588235295" d="M 6.5 3 L 6.5 4 L 6.5 3 Z "></path><path fill="rgb(3,2,0)" stroke="rgb(3,2,0)" stroke-width="1" opacity="0.5176470588235295" d="M 3.5 6 L 3.5 7 L 3.5 6 Z "></path><path fill="rgb(3,2,0)" stroke="rgb(3,2,0)" stroke-width="1" opacity="0.5176470588235295" d="M 31.5 12 L 31.5 13 L 31.5 12 Z "></path><path fill="rgb(3,2,0)" stroke="rgb(3,2,0)" stroke-width="1" opacity="0.5176470588235295" d="M 31.5 19 L 31.5 20 L 31.5 19 Z "></path><path fill="rgb(3,2,0)" stroke="rgb(3,2,0)" stroke-width="1" opacity="0.5176470588235295" d="M 3.5 25 L 3.5 26 L 3.5 25 Z "></path><path fill="rgb(3,2,0)" stroke="rgb(3,2,0)" stroke-width="1" opacity="0.5176470588235295" d="M 28.5 25 L 28.5 26 L 28.5 25 Z "></path><path fill="rgb(3,2,0)" stroke="rgb(3,2,0)" stroke-width="1" opacity="0.5176470588235295" d="M 6.5 28 L 6.5 29 L 6.5 28 Z "></path><path fill="rgb(3,2,0)" stroke="rgb(3,2,0)" stroke-width="1" opacity="0.5176470588235295" d="M 25.5 28 L 25.5 29 L 25.5 28 Z "></path><path fill="rgb(100,99,97)" stroke="rgb(100,99,97)" stroke-width="1" opacity="1" d="M 11.5 17 Q 13 18 10.5 19 Q 9 18 11.5 17 Z "></path><path fill="rgb(100,99,97)" stroke="rgb(100,99,97)" stroke-width="1" opacity="1" d="M 25.5 19 L 26 20.5 L 25 20.5 L 25.5 19 Z "></path><path fill="rgb(100,99,97)" stroke="rgb(100,99,97)" stroke-width="1" opacity="1" d="M 10.5 25 L 10.5 26 L 10.5 25 Z "></path><path fill="rgb(100,99,97)" stroke="rgb(100,99,97)" stroke-width="1" opacity="1" d="M 13.5 26 L 13.5 27 L 13.5 26 Z "></path><path fill="rgb(100,99,97)" stroke="rgb(100,99,97)" stroke-width="1" opacity="1" d="M 16.5 26 L 16.5 27 L 16.5 26 Z "></path><path fill="rgb(148,143,137)" stroke="rgb(148,143,137)" stroke-width="1" opacity="1" d="M 7.5 17 L 7.5 18 L 7.5 17 Z "></path><path fill="rgb(148,143,137)" stroke="rgb(148,143,137)" stroke-width="1" opacity="1" d="M 22.5 17 L 22.5 18 L 22.5 17 Z "></path><path fill="rgb(148,143,137)" stroke="rgb(148,143,137)" stroke-width="1" opacity="1" d="M 15.5 20 L 15.5 21 L 15.5 20 Z "></path><path fill="rgb(148,143,137)" stroke="rgb(148,143,137)" stroke-width="1" opacity="1" d="M 24.5 21 L 25 22.5 L 24 22.5 L 24.5 21 Z "></path><path fill="rgb(148,143,137)" stroke="rgb(148,143,137)" stroke-width="1" opacity="1" d="M 8.5 23 Q 11 24 9.5 25 Q 7 24 8.5 23 Z "></path><path fill="rgb(148,143,137)" stroke="rgb(148,143,137)" stroke-width="1" opacity="1" d="M 13.5 23 L 13.5 24 L 13.5 23 Z "></path><path fill="rgb(148,143,137)" stroke="rgb(148,143,137)" stroke-width="1" opacity="1" d="M 18.5 24 L 18.5 25 L 18.5 24 Z "></path><path fill="rgb(148,143,137)" stroke="rgb(148,143,137)" stroke-width="1" opacity="1" d="M 14.5 25 L 14.5 26 L 14.5 25 Z "></path><path fill="rgb(148,143,137)" stroke="rgb(148,143,137)" stroke-width="1" opacity="1" d="M 21.5 25 L 21.5 26 L 21.5 25 Z "></path><path fill="rgb(150,109,81)" stroke="rgb(150,109,81)" stroke-width="1" opacity="1" d="M 23.5 16 L 23.5 17 L 23.5 16 Z "></path><path fill="rgb(150,109,81)" stroke="rgb(150,109,81)" stroke-width="1" opacity="1" d="M 20.5 17 L 20.5 18 L 20.5 17 Z "></path><path fill="rgb(150,109,81)" stroke="rgb(150,109,81)" stroke-width="1" opacity="1" d="M 13.5 19 L 13.5 20 L 13.5 19 Z "></path><path fill="rgb(150,109,81)" stroke="rgb(150,109,81)" stroke-width="1" opacity="1" d="M 17.5 23 L 17.5 24 L 17.5 23 Z "></path><path fill="rgb(150,109,81)" stroke="rgb(150,109,81)" stroke-width="1" opacity="1" d="M 17.5 25 L 17.5 26 L 17.5 25 Z "></path><path fill="rgb(72,133,212)" stroke="rgb(72,133,212)" stroke-width="1" opacity="1" d="M 24.5 18 L 24.5 19 L 24.5 18 Z "></path><path fill="rgb(72,133,212)" stroke="rgb(72,133,212)" stroke-width="1" opacity="1" d="M 22.5 19 L 24 23 Q 21.33 24.13 22 21.5 Q 19.75 20.25 22.5 19 Z "></path><path fill="rgb(72,133,212)" stroke="rgb(72,133,212)" stroke-width="1" opacity="1" d="M 10.5 20 L 11 23.5 L 10 23.5 L 10.5 20 Z "></path><path fill="rgb(49,44,2)" stroke="rgb(49,44,2)" stroke-width="1" opacity="0.9294117647058824" d="M 11.5 1 L 11.5 2 L 11.5 1 Z "></path><path fill="rgb(49,44,2)" stroke="rgb(49,44,2)" stroke-width="1" opacity="0.9294117647058824" d="M 7.5 3 L 7.5 4 L 7.5 3 Z "></path><path fill="rgb(49,44,2)" stroke="rgb(49,44,2)" stroke-width="1" opacity="0.9294117647058824" d="M 3.5 7 L 3.5 8 L 3.5 7 Z "></path><path fill="rgb(49,44,2)" stroke="rgb(49,44,2)" stroke-width="1" opacity="0.9294117647058824" d="M 1.5 11 L 1.5 12 L 1.5 11 Z "></path><path fill="rgb(49,44,2)" stroke="rgb(49,44,2)" stroke-width="1" opacity="0.9294117647058824" d="M 1.5 20 L 1.5 21 L 1.5 20 Z "></path><path fill="rgb(49,44,2)" stroke="rgb(49,44,2)" stroke-width="1" opacity="0.9294117647058824" d="M 3.5 24 L 3.5 25 L 3.5 24 Z "></path><path fill="rgb(49,44,2)" stroke="rgb(49,44,2)" stroke-width="1" opacity="0.9294117647058824" d="M 7.5 28 L 7.5 29 L 7.5 28 Z "></path><path fill="rgb(49,44,2)" stroke="rgb(49,44,2)" stroke-width="1" opacity="0.9294117647058824" d="M 24.5 28 L 24.5 29 L 24.5 28 Z "></path><path fill="rgb(49,44,2)" stroke="rgb(49,44,2)" stroke-width="1" opacity="0.9294117647058824" d="M 11.5 30 L 11.5 31 L 11.5 30 Z "></path><path fill="rgb(49,44,2)" stroke="rgb(49,44,2)" stroke-width="1" opacity="0.9294117647058824" d="M 20.5 30 L 20.5 31 L 20.5 30 Z "></path><path fill="rgb(0,0,0)" stroke="rgb(0,0,0)" stroke-width="1" opacity="0.3686274509803922" d="M 9.5 1 L 9.5 2 L 9.5 1 Z "></path><path fill="rgb(0,0,0)" stroke="rgb(0,0,0)" stroke-width="1" opacity="0.3686274509803922" d="M 22.5 1 L 22.5 2 L 22.5 1 Z "></path><path fill="rgb(0,0,0)" stroke="rgb(0,0,0)" stroke-width="1" opacity="0.3686274509803922" d="M 7.5 2 L 7.5 3 L 7.5 2 Z "></path><path fill="rgb(0,0,0)" stroke="rgb(0,0,0)" stroke-width="1" opacity="0.3686274509803922" d="M 24.5 2 L 24.5 3 L 24.5 2 Z "></path><path fill="rgb(0,0,0)" stroke="rgb(0,0,0)" stroke-width="1" opacity="0.3686274509803922" d="M 2.5 7 L 2.5 8 L 2.5 7 Z "></path><path fill="rgb(0,0,0)" stroke="rgb(0,0,0)" stroke-width="1" opacity="0.3686274509803922" d="M 29.5 7 L 29.5 8 L 29.5 7 Z "></path><path fill="rgb(0,0,0)" stroke="rgb(0,0,0)" stroke-width="1" opacity="0.3686274509803922" d="M 1.5 9 L 1.5 10 L 1.5 9 Z "></path><path fill="rgb(0,0,0)" stroke="rgb(0,0,0)" stroke-width="1" opacity="0.3686274509803922" d="M 30.5 9 L 30.5 10 L 30.5 9 Z "></path><path fill="rgb(0,0,0)" stroke="rgb(0,0,0)" stroke-width="1" opacity="0.3686274509803922" d="M 0.5 12 L 0.5 13 L 0.5 12 Z "></path><path fill="rgb(0,0,0)" stroke="rgb(0,0,0)" stroke-width="1" opacity="0.3686274509803922" d="M 0.5 19 L 0.5 20 L 0.5 19 Z "></path><path fill="rgb(0,0,0)" stroke="rgb(0,0,0)" stroke-width="1" opacity="0.3686274509803922" d="M 1.5 22 L 1.5 23 L 1.5 22 Z "></path><path fill="rgb(0,0,0)" stroke="rgb(0,0,0)" stroke-width="1" opacity="0.3686274509803922" d="M 30.5 22 L 30.5 23 L 30.5 22 Z "></path><path fill="rgb(0,0,0)" stroke="rgb(0,0,0)" stroke-width="1" opacity="0.3686274509803922" d="M 2.5 24 L 2.5 25 L 2.5 24 Z "></path><path fill="rgb(0,0,0)" stroke="rgb(0,0,0)" stroke-width="1" opacity="0.3686274509803922" d="M 29.5 24 L 29.5 25 L 29.5 24 Z "></path><path fill="rgb(0,0,0)" stroke="rgb(0,0,0)" stroke-width="1" opacity="0.3686274509803922" d="M 7.5 29 L 7.5 30 L 7.5 29 Z "></path><path fill="rgb(0,0,0)" stroke="rgb(0,0,0)" stroke-width="1" opacity="0.3686274509803922" d="M 24.5 29 L 24.5 30 L 24.5 29 Z "></path><path fill="rgb(0,0,0)" stroke="rgb(0,0,0)" stroke-width="1" opacity="0.3686274509803922" d="M 9.5 30 L 9.5 31 L 9.5 30 Z "></path><path fill="rgb(0,0,0)" stroke="rgb(0,0,0)" stroke-width="1" opacity="0.3686274509803922" d="M 22.5 30 L 22.5 31 L 22.5 30 Z "></path><path fill="rgb(0,0,0)" stroke="rgb(0,0,0)" stroke-width="1" opacity="0.3686274509803922" d="M 12.5 31 L 12.5 32 L 12.5 31 Z "></path><path fill="rgb(0,0,0)" stroke="rgb(0,0,0)" stroke-width="1" opacity="0.3686274509803922" d="M 19.5 31 L 19.5 32 L 19.5 31 Z "></path><path fill="rgb(57,49,4)" stroke="rgb(57,49,4)" stroke-width="1" opacity="0.996078431372549" d="M 9.5 2 Q 11 3 8.5 4 Q 7 3 9.5 2 Z "></path><path fill="rgb(57,49,4)" stroke="rgb(57,49,4)" stroke-width="1" opacity="0.996078431372549" d="M 6.5 4 L 7 4.5 L 4.5 7 L 4 6.5 L 6.5 4 Z "></path><path fill="rgb(57,49,4)" stroke="rgb(57,49,4)" stroke-width="1" opacity="0.996078431372549" d="M 25.5 5 Q 28 6 26.5 7 Q 24 6 25.5 5 Z "></path><path fill="rgb(57,49,4)" stroke="rgb(57,49,4)" stroke-width="1" opacity="0.996078431372549" d="M 3.5 8 L 3 9.5 L 2.5 11 L 2 9.5 L 3.5 8 Z "></path><path fill="rgb(57,49,4)" stroke="rgb(57,49,4)" stroke-width="1" opacity="0.996078431372549" d="M 22.5 10 L 23 11.5 L 22 11.5 L 22.5 10 Z "></path><path fill="rgb(57,49,4)" stroke="rgb(57,49,4)" stroke-width="1" opacity="0.996078431372549" d="M 1.5 12 L 2 13.5 L 1 13.5 L 1.5 12 Z "></path><path fill="rgb(57,49,4)" stroke="rgb(57,49,4)" stroke-width="1" opacity="0.996078431372549" d="M 6.5 12 L 6.5 13 L 6.5 12 Z "></path><path fill="rgb(57,49,4)" stroke="rgb(57,49,4)" stroke-width="1" opacity="0.996078431372549" d="M 1.5 18 L 2 19.5 L 1 19.5 L 1.5 18 Z "></path><path fill="rgb(57,49,4)" stroke="rgb(57,49,4)" stroke-width="1" opacity="0.996078431372549" d="M 2.5 21 L 4 23.5 Q 3 25 2 22.5 L 2.5 21 Z "></path><path fill="rgb(57,49,4)" stroke="rgb(57,49,4)" stroke-width="1" opacity="0.996078431372549" d="M 16.5 23 L 16.5 24 L 16.5 23 Z "></path><path fill="rgb(57,49,4)" stroke="rgb(57,49,4)" stroke-width="1" opacity="0.996078431372549" d="M 4.5 25 L 7 27.5 L 6.5 28 L 4 25.5 L 4.5 25 Z "></path><path fill="rgb(57,49,4)" stroke="rgb(57,49,4)" stroke-width="1" opacity="0.996078431372549" d="M 27.5 25 L 28 25.5 L 25.5 28 L 25 27.5 L 27.5 25 Z "></path><path fill="rgb(57,49,4)" stroke="rgb(57,49,4)" stroke-width="1" opacity="0.996078431372549" d="M 8.5 28 L 11 29.5 L 9.5 30 Q 7 29 8.5 28 Z "></path><path fill="rgb(57,49,4)" stroke="rgb(57,49,4)" stroke-width="1" opacity="0.996078431372549" d="M 23.5 28 Q 25 29 22.5 30 L 21 29.5 L 23.5 28 Z "></path><path fill="rgb(57,49,4)" stroke="rgb(57,49,4)" stroke-width="1" opacity="0.996078431372549" d="M 12.5 30 L 14 30.5 L 12.5 31 L 12.5 30 Z "></path><path fill="rgb(57,49,4)" stroke="rgb(57,49,4)" stroke-width="1" opacity="0.996078431372549" d="M 18.5 30 L 20 30.5 L 18.5 31 L 18.5 30 Z "></path></svg>