/* XPM */
static char *bitcoin64[] = {
/* columns rows colors chars-per-pixel */
"64 64 243 2 ",
"   c #010101",
".  c #090601",
"X  c #0D0B02",
"o  c #0B0B0C",
"O  c #050709",
"+  c #120C01",
"@  c #1B0B01",
"#  c #141303",
"$  c #1B1502",
"%  c #1C1A04",
"&  c #11110E",
"*  c #0D1116",
"=  c #141414",
"-  c #1C1C1B",
";  c #121519",
":  c #060D18",
">  c #241D02",
",  c #2A1A03",
"<  c #331707",
"1  c #242205",
"2  c #2A2603",
"3  c #2B2907",
"4  c #342905",
"5  c #3A3505",
"6  c #3D3B0A",
"7  c #383507",
"8  c #3E3D10",
"9  c #151C26",
"0  c #0C1621",
"q  c #1B232B",
"w  c #1D2732",
"e  c #232323",
"r  c #2D2D2C",
"t  c #21282F",
"y  c #242E39",
"u  c #27303A",
"i  c #363737",
"p  c #3F3125",
"a  c #5A1602",
"s  c #6D1C05",
"d  c #4B2506",
"f  c #562C0E",
"g  c #572E0B",
"h  c #463C06",
"j  c #583703",
"k  c #4A391A",
"l  c #693402",
"z  c #523831",
"x  c #494509",
"c  c #4D4B0B",
"v  c #484307",
"b  c #524C05",
"n  c #544706",
"m  c #5C5609",
"M  c #595712",
"N  c #4D4B11",
"B  c #645C06",
"V  c #635D0B",
"C  c #695906",
"Z  c #755B02",
"A  c #6E4A02",
"S  c #6B6206",
"D  c #6A650C",
"F  c #69640B",
"G  c #736B0B",
"H  c #7A6705",
"J  c #7C740D",
"K  c #7D790F",
"L  c #6B6814",
"P  c #7E7A14",
"I  c #787517",
"U  c #706E16",
"Y  c #745227",
"T  c #5A472E",
"R  c #102341",
"E  c #283646",
"W  c #2D3D50",
"Q  c #12376D",
"!  c #2C4157",
"~  c #364558",
"^  c #374B64",
"/  c #3B526C",
"(  c #3D5774",
")  c #2D4560",
"_  c #4D4D4D",
"`  c #444544",
"'  c #5B5C5B",
"]  c #565655",
"[  c #494F51",
"{  c #495A6B",
"}  c #425A74",
"|  c #4A5D74",
" . c #475E7B",
".. c #59566E",
"X. c #4C627B",
"o. c #48617C",
"O. c #686968",
"+. c #7B7B7B",
"@. c #747574",
"#. c #61615F",
"$. c #8D1C00",
"%. c #A32501",
"&. c #8F2002",
"*. c #E73404",
"=. c #FB3805",
"-. c #C52C01",
";. c #935602",
":. c #BB5603",
">. c #AC5205",
",. c #85760A",
"<. c #817C13",
"1. c #807C1B",
"2. c #907003",
"3. c #AB6305",
"4. c #9D6620",
"5. c #DB6903",
"6. c #CF6803",
"7. c #E27503",
"8. c #E47905",
"9. c #EA7D05",
"0. c #F07E05",
"q. c #CF6913",
"w. c #825250",
"e. c #7E807B",
"r. c #898418",
"t. c #9C8504",
"y. c #A88604",
"u. c #B39506",
"i. c #BCA504",
"p. c #858223",
"a. c #D38C04",
"s. c #EC8907",
"d. c #F88A06",
"f. c #FC9306",
"g. c #FF9609",
"h. c #FF990A",
"j. c #FA9408",
"k. c #FF9D11",
"l. c #C6A904",
"z. c #D8AB04",
"x. c #CCB904",
"c. c #E6B703",
"v. c #FAAC15",
"b. c #FFA527",
"n. c #FFAC36",
"m. c #DAC705",
"M. c #DAD006",
"N. c #E1CE05",
"B. c #FFCD04",
"V. c #F5C403",
"C. c #EBD703",
"Z. c #FDD404",
"A. c #F6EA05",
"S. c #FEF404",
"D. c #FFFD05",
"F. c #FFFE08",
"G. c #EAE005",
"H. c #FFB84B",
"J. c #FEB954",
"K. c #C9A472",
"L. c #E59B4B",
"P. c #FFC772",
"I. c #003D9A",
"U. c #054EBB",
"Y. c #1156B6",
"T. c #3469B1",
"R. c #2E5081",
"E. c #4A6482",
"W. c #4A6686",
"Q. c #536C8B",
"!. c #546B86",
"~. c #5B7696",
"^. c #576F8F",
"/. c #617B9C",
"(. c #4776B4",
"). c #5379AA",
"_. c #637EA0",
"`. c #0053CA",
"'. c #005CE1",
"]. c #0168FD",
"[. c #0368FA",
"{. c #0C71F9",
"}. c #2B7AE8",
"|. c #3178D9",
" X c #768798",
".X c #6783A5",
"XX c #738EAE",
"oX c #368AFC",
"OX c #3784ED",
"+X c #598BD4",
"@X c #7498C5",
"#X c #4796FF",
"$X c #4D94F3",
"%X c #629DEF",
"&X c #71A7F1",
"*X c #5CA6FF",
"=X c #8C8C8C",
"-X c #848584",
";X c #9A9A95",
":X c #979997",
">X c #909193",
",X c #A0A09D",
"<X c #929AA0",
"1X c #9DA2A6",
"2X c #96A6BA",
"3X c #A4A4A3",
"4X c #A8A9A9",
"5X c #A3ADB9",
"6X c #ADB2B7",
"7X c #B3B4B3",
"8X c #BCBCBD",
"9X c #B9B9B5",
"0X c #B0B0AA",
"qX c #9FA099",
"wX c #D8B893",
"eX c #FED28A",
"rX c #FFD595",
"tX c #FEDEA9",
"yX c #C0C0BA",
"uX c #8BA9D2",
"iX c #A4B8D2",
"pX c #8ABCFF",
"aX c #B9C6D7",
"sX c #B8DAFF",
"dX c #A5CCFF",
"fX c #9CC7F7",
"gX c #C3C3C3",
"hX c #CDCDCD",
"jX c #C7C8C8",
"kX c #D3D3D3",
"lX c #DBDBDA",
"zX c #CFD0CF",
"xX c #FEECCF",
"cX c #D4E4F7",
"vX c #E3E3E4",
"bX c #E9EAEC",
"nX c #FEF7E8",
"mX c #EBF6FF",
"MX c #F2F2F2",
"NX c #FEFEFE",
"BX c #F2F6F8",
"VX c #E8EFF4",
"CX c None",
/* pixels */
"CXCXCXCXCXCXCXCXCXCXCXCXCXCXCXCXCXCXCXCXCXCXCXCXCXCXCXCXCX            CXCXCXCXCXCXCXCXCXCXCXCXCXCXCXCXCXCXCXCXCXCXCXCXCXCXCXCXCX",
"CXCXCXCXCXCXCXCXCXCXCXCXCXCXCXCXCXCXCXCXCXCXCXCX        . X # # # # X .         CXCXCXCXCXCXCXCXCXCXCXCXCXCXCXCXCXCXCXCXCXCXCXCX",
"CXCXCXCXCXCXCXCXCXCXCXCXCXCXCXCXCXCXCXCXCX    O % 6 m B S S S V F S F S B b 5 % .     CXCXCXCXCXCXCXCXCXCXCXCXCXCXCXCXCXCXCXCXCX",
"CXCXCXCXCXCXCXCXCXCXCXCXCXCXCXCXCXCX  O O 3 M L D c 4 % X .         . . % 2 v m B b 1 .     CXCXCXCXCXCXCXCXCXCXCXCXCXCXCXCXCXCX",
"CXCXCXCXCXCXCXCXCXCXCXCXCXCXCXCX    X x U L 6 #                                 # 7 m B 5 .     CXCXCXCXCXCXCXCXCXCXCXCXCXCXCXCX",
"CXCXCXCXCXCXCXCXCXCXCXCXCXCXCX  . 6 U M 1                                             % n S 5 .   CXCXCXCXCXCXCXCXCXCXCXCXCXCXCX",
"CXCXCXCXCXCXCXCXCXCXCXCXCX    1 G V %                                                     # b C >     CXCXCXCXCXCXCXCXCXCXCXCXCX",
"CXCXCXCXCXCXCXCXCXCXCXCX  . v G 3                                                             1 S v .   CXCXCXCXCXCXCXCXCXCXCXCX",
"CXCXCXCXCXCXCXCXCXCXCX  + F m X                                                                 . m B #   CXCXCXCXCXCXCXCXCXCXCX",
"CXCXCXCXCXCXCXCXCXCX  % J v                                                                         7 D %   CXCXCXCXCXCXCXCXCXCX",
"CXCXCXCXCXCXCXCXCX  % I 7   + +                                                                   + X 2 D >   CXCXCXCXCXCXCXCXCX",
"CXCXCXCXCXCXCXCX  % P 7   > 2.,                                                                 . , 2.# 2 S $   CXCXCXCXCXCXCXCX",
"CXCXCXCXCXCXCX  # I 6   + u.l..                                                                   X l.u.+ 2 S X   CXCXCXCXCXCXCX",
"CXCXCXCXCXCX  O D c     Z D.t.                                                                      t.D.S   7 B .   CXCXCXCXCXCX",
"CXCXCXCXCXCX  c D     , M.D.t.                                n y.h                                 y.F.M.>   c x   CXCXCXCXCXCX",
"CXCXCXCXCX  3 <.#     H D.D.i..                             % z.Z.z.>                             . i.D.F.H   X D 1   CXCXCXCXCX",
"CXCXCXCXCXO I 7     + l.S.D.N.>                     O 9 ~ E j V.B.B.n E ~ q O                     , C.D.D.x..   2 F .   CXCXCXCX",
"CXCXCXCX  6 U       4 C.D.D.S.Z                 . q { ~./.[ Z B.B.B.Z ~ !.!.{ w O                 H S.D.D.C.2     m 5   CXCXCXCX",
"CXCXCXCXX P 1       j A.D.D.D.N.4             & ~ /.~.Q.W.E 2.B.B.B.2.E E.!.Q.W.~ =             5 N.D.F.D.S.h     # D X   CXCXCX",
"CXCXCX  6 D         n S.D.D.D.D.x.j .       = X.~.W.E.X.E.w 2.Z.B.B.y.q o.E.E.E.^.{ ;       X h m.S.S.D.D.S.n       b 6   CXCXCX",
"CXCXCX  J 2         h A.D.D.D.D.D.G.H 1 + * | ^.X.^ } E./ & u.B.B.B.a.& ! W. .!  .~.| * + , 2.G.F.F.F.S.D.A.h       % S . CXCXCX",
"CXCX  2 J           @ m.D.D.D.D.D.D.2.y.j ~ W.E.} E  .E.E + z.B.B.B.l.X w E.o.E ^ ^.~.~ n y.2.D.F.F.F.S.D.m.$         m 1   CXCX",
"CXCX  m x             2.S.D.D.D.D.A.A ;.y ( o.E.! ! W.} * $ c.B.B.B.z.$ O ! ( W ! Q.^.W.y ;.A G.F.F.F.F.S.2.          5 b   CXCX",
"CXCX. J %             $ l.D.D.D.D.i.< , q E y y 9 w y 9   > c.c.z.V.c.> O ; w q 9 E E y q < < i.D.F.D.D.l.$           X F . CXCX",
"CX  % K .               4 x.S.D.A.C ^  .} | X.X.X.X.| X.E 2 c.l._ l.c.7 ^ X.| X.| | } ^ W ^ E C D.D.D.x.4               F %   CX",
"CX  h V                   , 3.A.C.k ~.~.{ X._..X.X!.{ !.E.7 c.c.3.c.c.4 E.!...!./.~.Q.^ W } / k C.A.y.>                 N 7   CX",
"CX  m v                     . j Z - ^.~.[ } /._..XX.[ X.~.u C c.B.z.C y ~.| [ E.).~.W.W W ( ^ * Z h .                   7 N   CX",
"CX  G 3                           X ^ X.} } } } ( ( / ( ( ) 9 , b 1 9 ^ ( ( ^ / / ) ) W W ) E O   .                     = L   CX",
"CX. K %                           @ g g f f f g g f g f f f f d d d f f f f f f f f f f d a d @                         # L O CX",
"CXX K X                         . >.5.7.9.0.9.s.8.7.7.8.8.8.7.7.7.8.8.8.8.8.7.8.7.7.5.5.:.:.>.l .                       . L X   ",
"CX# K .                         d 7.0.f.g.g.h.h.h.n.n.k.h.h.g.f.f.h.h.g.h.k.n.b.g.g.d.0.7.6.:.>.<                         F #   ",
"  $ J .                       @ 6.d.f.f.g.g.h.g.h.eXnXtXv.g.h.h.h.h.h.g.b.tXnXeXk.g.k.g.0.5.:.:.>.@                       F #   ",
"  # P                         p wXn.h.h.h.h.h.h.g.v.P.eXb.h.h.h.h.h.k.g.b.eXP.b.k.h.h.g.j.d.5.:.w.e . O                   V #   ",
"CX# p.X                       +.nXxXJ.h.j.j.s.s.s.j.f.h.h.h.h.h.h.h.h.h.h.g.f.f.j.d.d.j.j.h.q.E.`.Q . .                 . B #   ",
"CX& p.#                     e 9XbXNXnXK.Y g < T k d s.h.h.h.h.h.k.h.h.h.h.f.8.j k Y 4 d 4.L.;XY.U.U.0                   . B X   ",
"CX. p.%                   O +.zXbXNXsXfX5X= i vX3XO j j.h.h.h.k.J.k.h.h.h.j.j O 4XvXr = 7XyX3X(.U.T.] O                 X B . CX",
"CX  I 3                   e 7XkXMXmXoX*X4X. t 8X=X. . 3.h.h.h.n.xXn.g.h.h.3.. . =X8X9 O 0XhX3X<XY.T.e.;                 % B   CX",
"CX  V N                   _ 8XlXNXsX{.sX3XO . o O     j s.h.h.rXNXeXh.h.s.j     X o   . 3XlX0X;X(.(.-Xr                 7 n   CX",
"CX  6 D                   r yXvXNX&XoXmXuX:   . . . X 3.f.f.J.nXNXnXH.f.f.;.O         : +XiX0XqX~.(.-Xq                 b 5   CX",
"CX  % <..                 ] gXzXBX#X&XmX}.I.w e r /.0XK.H.P.nXNXNXNXnXP.H.K.4X+.i q R I.'.|.4X;X/.).;Xz                 B %   CX",
"CXCX. K 1                 ' 0X9XVX#XdXsX{.].&XkXvXBXNXNXNXNXiXe.@.-XgXNXNXNXNXBXvXhX&X[.].[.@X3XXXXX;X]               # S . CXCX",
"CXCX  m m                 ` ,X9XVX#XcXpX].{.cXNXNXNXNXNXNX3X@.3X3X] = 3XNXNXNXNXNXNXVX#X].].}.<X<X X=Xi               5 b   CXCX",
"CXCX  1 <..               e qX9XvX%XaX*X].oXmXNXNXNXNXNXNX] i ` r &   ' NXNXNXNXNXNXNXdX].].'..XqX;X<Xq               F 1   CXCX",
"CXCXCX. J 4               = ;X7XyXuXiXOX].#XNXNXvX8XvXNXNX=X.       O >XNXNXvX8XvXNXNXVXoX[.'.).qX;Xw.*             1 D . CXCXCX",
"CXCXCX  5 G               O @.9X9X2XiX$X].*XBXNX@.O.MXNXNXMX-Xe O e -XBXNXNXnXO.+.NXNXbX$X[.'.T.;X;X#..             m 5   CXCXCX",
"CXCXCXCXX r.3               e =X9X5X0X+X].%XbXBXkX#.yXNXNXNXNX4X; 0XNXNXNXNXiX#.kXNXMXkXuX[.`.Y.<X@.-             % G .   CXCXCX",
"CXCXCXCX  8 P .               i 3X6X5X@X{.%XlXbXNX9X` =XjXzX1Xi . i 4XkXjX=X` gXBXMXMXhXaX|.U.`. Xr               B 7   CXCXCXCX",
"CXCXCXCXCXO P x               . ] :X2X:X|.%XzXlXbXNXiX_ e < s a @ a s < - _ jXNXvXvXvXhXyX(.U.W._ X             3 G . CXCXCXCXCX",
"CXCXCXCXCX  1 r.%               O ' qX;XXX&XhXkXkXbXNXkX] $.*.*.%.*.=.&.] lXNXbXlXkXkXjX1XT.Y.W X             X J >   CXCXCXCXCX",
"CXCXCXCXCXCX  N P X               - +.>X:X5XhXzXzXkXvXvX+.s =.=.*.=.=.&.+.vXvXkXkXkXhX0X:X/.( o               V v   CXCXCXCXCXCX",
"CXCXCXCXCXCXCX. U m                 - i -X,X9XjXhXkXkXkX7Xz %.*.=.=.-.z 7XkXkXzXhXhX9XqX Xr -               x B .   CXCXCXCXCXCX",
"CXCXCXCXCXCXCX  # r.c                   - ' =X6X;X7XjXjXhX3Xz a s s z 4XhXjXhX7X3X9X=X' - .               7 G X   CXCXCXCXCXCXCX",
"CXCXCXCXCXCXCXCX  % r.v                     - _ #._ =X3X3X3X:XO._ O.;X3X,X,X=X_ #._ - .                 7 J %   CXCXCXCXCXCXCXCX",
"CXCXCXCXCXCXCXCXCX  % r.N                       o O - _ @.] @.:X:X>X@.] @._ - O o                     5 J %   CXCXCXCXCXCXCXCXCX",
"CXCXCXCXCXCXCXCXCXCX  % p.M .       .                   o = o r ` r . = o                           c K $   CXCXCXCXCXCXCXCXCXCX",
"CXCXCXCXCXCXCXCXCXCXCX  & U I %                                                                 # D L X   CXCXCXCXCXCXCXCXCXCXCX",
"CXCXCXCXCXCXCXCXCXCXCXCX  . N r.v                                                             7 P c .   CXCXCXCXCXCXCXCXCXCXCXCX",
"CXCXCXCXCXCXCXCXCXCXCXCXCXCX  2 I J 2                                                     3 U I 1     CXCXCXCXCXCXCXCXCXCXCXCXCX",
"CXCXCXCXCXCXCXCXCXCXCXCXCXCXCX  . 6 <.I 7 O                       .                   3 L I 6 O   CXCXCXCXCXCXCXCXCXCXCXCXCXCXCX",
"CXCXCXCXCXCXCXCXCXCXCXCXCXCXCXCXCX  . 6 P p.M 1 X                             O 1 N P I 8 X   CXCXCXCXCXCXCXCXCXCXCXCXCXCXCXCXCX",
"CXCXCXCXCXCXCXCXCXCXCXCXCXCXCXCXCXCXCX  O 1 M <.r.D v 3 % & . . . . X % 2 h B J K m 1 .   CXCXCXCXCXCXCXCXCXCXCXCXCXCXCXCXCXCXCX",
"CXCXCXCXCXCXCXCXCXCXCXCXCXCXCXCXCXCXCXCXCX    . % 6 V G P r.r.P K P ,.J G m 5 % .     CXCXCXCXCXCXCXCXCXCXCXCXCXCXCXCXCXCXCXCXCX",
"CXCXCXCXCXCXCXCXCXCXCXCXCXCXCXCXCXCXCXCXCXCXCXCX        O X # % $ # X .         CXCXCXCXCXCXCXCXCXCXCXCXCXCXCXCXCXCXCXCXCXCXCXCX",
"CXCXCXCXCXCXCXCXCXCXCXCXCXCXCXCXCXCXCXCXCXCXCXCXCXCXCXCXCXCXCX    CXCXCXCXCXCXCXCXCXCXCXCXCXCXCXCXCXCXCXCXCXCXCXCXCXCXCXCXCXCXCX"
};
