/* XPM */
static char *bitcoin32[] = {
/* columns rows colors chars-per-pixel */
"32 32 203 2 ",
"   c #010001",
".  c #080601",
"X  c #0D0C02",
"o  c #0B0B0C",
"O  c #110E03",
"+  c #141303",
"@  c #181703",
"#  c #1C1B04",
"$  c #1E1D08",
"%  c #181817",
"&  c #171716",
"*  c #0E1115",
"=  c #211E03",
"-  c #391C02",
";  c #242205",
":  c #2D2A05",
">  c #222108",
",  c #2B2907",
"<  c #322D03",
"1  c #302201",
"2  c #363205",
"3  c #393405",
"4  c #3D3907",
"5  c #34330B",
"6  c #3A3709",
"7  c #3D3B0B",
"8  c #302A12",
"9  c #292611",
"0  c #131B27",
"q  c #1C232B",
"w  c #232323",
"e  c #272829",
"r  c #2D2D2D",
"t  c #2F2E24",
"y  c #333333",
"u  c #393A3B",
"i  c #363735",
"p  c #242B30",
"a  c #421E03",
"s  c #572C03",
"d  c #423C05",
"f  c #423E09",
"g  c #443505",
"h  c #403F12",
"j  c #4A271D",
"k  c #413621",
"l  c #44410B",
"z  c #4B480B",
"x  c #564602",
"c  c #4A4912",
"v  c #615503",
"b  c #68550E",
"n  c #735B05",
"m  c #6D490C",
"M  c #7E6E03",
"N  c #444532",
"B  c #544C2B",
"V  c #6C5F22",
"C  c #6B563B",
"Z  c #7C4739",
"A  c #132F57",
"S  c #2B3B4C",
"D  c #353E49",
"F  c #30385A",
"G  c #2F4156",
"H  c #33455C",
"J  c #394859",
"K  c #364048",
"L  c #3A4D64",
"P  c #3D526B",
"I  c #4C4D4D",
"U  c #474747",
"Y  c #434D56",
"T  c #555658",
"R  c #764E43",
"E  c #74644F",
"W  c #42556D",
"Q  c #44576C",
"!  c #495F79",
"~  c #475C74",
"^  c #585C60",
"/  c #4F667F",
"(  c #636463",
")  c #71716D",
"_  c #767775",
"`  c #716E6A",
"'  c #96361B",
"]  c #B02A08",
"[  c #D82D01",
"{  c #954D09",
"}  c #99530F",
"|  c #9C5710",
" . c #9D5811",
".. c #86420E",
"X. c #B65A04",
"o. c #A15C13",
"O. c #876902",
"+. c #897707",
"@. c #B76902",
"#. c #AA6638",
"$. c #C06F01",
"%. c #E27103",
"&. c #975C4C",
"*. c #907450",
"=. c #907068",
"-. c #847D7B",
";. c #8D7B63",
":. c #7E807F",
">. c #9A8604",
",. c #9B9204",
"<. c #A29404",
"1. c #A78F0E",
"2. c #B6A604",
"3. c #C39D0B",
"4. c #EA8907",
"5. c #F88D06",
"6. c #FF9708",
"7. c #FF990B",
"8. c #FA9406",
"9. c #FF9D13",
"0. c #EB9216",
"q. c #D5AA02",
"w. c #C8A106",
"e. c #FFA31F",
"r. c #FDAB36",
"t. c #FEA42B",
"y. c #DDD505",
"u. c #D4C504",
"i. c #FFCD03",
"p. c #F3C305",
"a. c #E3D904",
"s. c #ECE405",
"d. c #EFE906",
"f. c #FFFE06",
"g. c #FFFF08",
"h. c #F0EB05",
"j. c #B8956A",
"k. c #CE9341",
"l. c #FDB246",
"z. c #FFBF61",
"x. c #FFC066",
"c. c #FFC974",
"v. c #1957AD",
"b. c #4D6581",
"n. c #476180",
"m. c #526A88",
"M. c #41669C",
"N. c #7E7E80",
"B. c #4572AF",
"V. c #1961C5",
"C. c #3372C8",
"Z. c #0D6EFA",
"A. c #217CFA",
"S. c #7F878C",
"D. c #6981A5",
"F. c #6B90BF",
"G. c #758AA4",
"H. c #378AFC",
"J. c #4E82CD",
"K. c #7299CE",
"L. c #4A8CE7",
"P. c #6CA1EB",
"I. c #73B1FF",
"U. c #838585",
"Y. c #898A8A",
"T. c #9E928E",
"R. c #9B9C9C",
"E. c #9C9594",
"W. c #A09E9C",
"Q. c #A4A49D",
"!. c #8799AD",
"~. c #9BA3A8",
"^. c #8EA2BD",
"/. c #A7A8A8",
"(. c #B5B6B7",
"). c #B9BABA",
"_. c #B6B4AE",
"`. c #EEC28E",
"'. c #FFD491",
"]. c #C1C0BF",
"[. c #F9E1BB",
"{. c #ABBED3",
"}. c #8FC1FF",
"|. c #90C0FE",
" X c #A3C8F7",
".X c #AFC5E1",
"XX c #C4C4C3",
"oX c #CACACA",
"OX c #CFD1D2",
"+X c #D3D4D5",
"@X c #DCDCDB",
"#X c #C9CCD0",
"$X c #E0DCD5",
"%X c #D6DBE1",
"&X c #D1E4FC",
"*X c #E9E9EA",
"=X c #E4E5E6",
"-X c #F0EFEE",
";X c #F7F8F8",
":X c #FBFBFA",
">X c #F6F5F3",
",X c #ECF0F3",
"<X c None",
/* pixels */
"<X<X<X<X<X<X<X<X<X<X<X<X<XO @ # # @ O <X<X<X<X<X<X<X<X<X<X<X<X<X",
"<X<X<X<X<X<X<X<X<X<X$ 5 4 2 : : : : < 3 : # <X<X<X<X<X<X<X<X<X<X",
"<X<X<X<X<X<X<X<X# 7 5 # .             . @ : 3 # <X<X<X<X<X<X<X<X",
"<X<X<X<X<X<XX 2 5 +                         X < < X <X<X<X<X<X<X",
"<X<X<X<X<X@ 7 =                                 # 3 + <X<X<X<X<X",
"<X<X<X<X@ f ; 1                                 O g 3 + <X<X<X<X",
"<X<X<XX l # +.v                 .               O <.f 2 X <X<X<X",
"<X<X<X4 ; 2 a.v               x +.=             X u.,.# 2 <X<X<X",
"<X<X> 7   M f.,.        * S J 1.i.B H q .       2 d.y.= < # <X<X",
"<X<Xl @   <.f.s.v .   e ! m.Y 3.i.V n.b.G o   ; 2.f.h.< X 2 <X<X",
"<X# 4     +.f.f.d.n t ! P ! i q.i.n H P b.J g 2.f.f.a.;   < # <X",
"<X3 =     < a.f.y.x D L S H 9 q.q.M 0 S H P i ,.f.f.>.    # : <X",
"<Xl X       x u.1.~ ~ m./ Q N w.w.+.Q ! b.P H B a.,.+     . 6 <X",
"+ f           = 8 Q Q b.! W J b +.N Q Q ! H F e < X         5 X ",
"# 4             - | o.o.o. . .{ { } } | | { ' s .           5 # ",
"; 3           X X.8.6.6.t.x.9.6.6.5.l.z.7.5.%.X.a           , # ",
"> 6           i `.t.4.4.0.l.9.6.6.7.r.r.4.4.5.&.F o         : # ",
"$ h         . Y.,X#XC E C $.7.7.e.6.5.m ;.B j.N.v.0         < + ",
"+ l         w ].&XI.T u e s 5.l.'.7.@.O U w /.~.B.I         3 X ",
"<Xl X       r XX X}.M.0 i *.l.[.-Xc.k.T 0 A J.R.B.( .     . 3 <X",
"<X4 ;       r _. X}.A..X-X:X$XR.-.W.>X:X@XP.Z.K.!.(       # : <X",
"<X> f       % /.{.P.H.,X=X:X(.r & I ;X*X;X&XZ.C.R.I       2 # <X",
"<X<Xl @     . ) (.K.H.,XW.@X;XU.u +X:X/.OX*XL.V.S.w     + 3 <X<X",
"<X<X; l       % U.^.L.%X@XY.-.R j =._ ).*X@XK.v.K       3 = <X<X",
"<X<X<Xf ,       e U.^.#X@X+XZ [ [ ] E.*X@XoXG.A .     ; 2 <X<X<X",
"<X<X<X+ z #     . % ( /.).OXT.' ] &.XXXX(.Y.u o     @ 4 X <X<X<X",
"<X<X<X<X# z $       . w i ( S.) ` _ _ U r *       # f + <X<X<X<X",
"<X<X<X<X<X# c ,             o % w * o           ; f + <X<X<X<X<X",
"<X<X<X<X<X<X+ 7 l @                         @ 7 6 X <X<X<X<X<X<X",
"<X<X<X<X<X<X<X<X; l l > O           . X > 7 l > <X<X<X<X<X<X<X<X",
"<X<X<X<X<X<X<X<X<X<X> 6 l l 7 6 3 4 d d 3 # <X<X<X<X<X<X<X<X<X<X",
"<X<X<X<X<X<X<X<X<X<X<X<X<X+ # > > # + <X<X<X<X<X<X<X<X<X<X<X<X<X"
};
