/* XPM */
static char *bitcoin16[] = {
/* columns rows colors chars-per-pixel */
"16 16 175 2 ",
"   c #000000",
".  c #000001",
"X  c #020201",
"o  c #030301",
"O  c #010103",
"+  c #040400",
"@  c #040401",
"#  c #050401",
"$  c #050501",
"%  c #060501",
"&  c #060602",
"*  c #070602",
"=  c #020305",
"-  c #030406",
";  c #060606",
":  c #080701",
">  c #080702",
",  c #0C0703",
"<  c #080800",
"1  c #090800",
"2  c #090801",
"3  c #0A0900",
"4  c #0B0A02",
"5  c #0C0B02",
"6  c #0F0D01",
"7  c #100E02",
"8  c #180B04",
"9  c #121102",
"0  c #161301",
"q  c #141202",
"w  c #141303",
"e  c #161603",
"r  c #141404",
"t  c #191803",
"y  c #1C1903",
"u  c #191804",
"i  c #1D1B04",
"p  c #1D1C04",
"a  c #0C0E12",
"s  c #101011",
"d  c #181819",
"f  c #201D02",
"g  c #211F03",
"h  c #221F02",
"j  c #221F03",
"k  c #221C06",
"l  c #242102",
"z  c #242103",
"x  c #222004",
"c  c #222106",
"v  c #222107",
"b  c #232206",
"n  c #232207",
"m  c #242104",
"M  c #252304",
"N  c #242207",
"B  c #272505",
"V  c #252407",
"C  c #272707",
"Z  c #282403",
"A  c #2A2503",
"S  c #292706",
"D  c #2F2901",
"F  c #2A2805",
"G  c #2B2805",
"H  c #2B2905",
"J  c #2A2907",
"K  c #2B2907",
"L  c #2C2804",
"P  c #2C2905",
"I  c #2E2804",
"U  c #2D2A05",
"Y  c #2C2A07",
"T  c #2E2B07",
"R  c #2C2A08",
"E  c #2D2B0A",
"W  c #2F2D08",
"Q  c #2E2C09",
"!  c #322904",
"~  c #393302",
"^  c #3D3906",
"/  c #141920",
"(  c #2C2B29",
")  c #313132",
"_  c #333638",
"`  c #393939",
"'  c #3F3C3A",
"]  c #554C00",
"[  c #554E03",
"{  c #575204",
"}  c #5E5603",
"|  c #676004",
" . c #696202",
".. c #766B03",
"X. c #736916",
"o. c #48423F",
"O. c #45483A",
"+. c #5F5E36",
"@. c #695437",
"#. c #726225",
"$. c #222F48",
"%. c #2F3741",
"&. c #2E3D52",
"*. c #38434F",
"=. c #354153",
"-. c #374352",
";. c #334254",
":. c #354656",
">. c #374C67",
",. c #394A60",
"<. c #474341",
"1. c #464F5A",
"2. c #7D625B",
"3. c #445166",
"4. c #475465",
"5. c #40536E",
"6. c #4D5B6E",
"7. c #50647B",
"8. c #666766",
"9. c #666E75",
"0. c #727474",
"q. c #7A7A78",
"w. c #944B0B",
"e. c #96550F",
"r. c #886E16",
"t. c #8A771C",
"y. c #AA452A",
"u. c #80722C",
"i. c #8E6835",
"p. c #B27625",
"a. c #B1782B",
"s. c #C6740D",
"d. c #C67715",
"f. c #C67417",
"g. c #CE7C15",
"h. c #A25A46",
"j. c #A87D53",
"k. c #927E79",
"l. c #898404",
"z. c #9C910D",
"x. c #B3910B",
"c. c #A68A16",
"v. c #B4AD05",
"b. c #D68A1F",
"n. c #FD9D11",
"m. c #FF9F12",
"M. c #C38124",
"N. c #C88531",
"B. c #C98630",
"V. c #D2CA04",
"C. c #ECE604",
"Z. c #F4EF06",
"A. c #EEB35E",
"S. c #F7C275",
"D. c #768EAE",
"F. c #7C92AE",
"G. c #4D80C5",
"H. c #4282DB",
"J. c #7CAAE9",
"K. c #8E949C",
"L. c #A2A19D",
"P. c #ADAEAE",
"I. c #B6AFAD",
"U. c #BCBDBD",
"Y. c #D7B78C",
"T. c #C0BEBD",
"R. c #8BB5EA",
"E. c #9ABBE9",
"W. c #A9C1E2",
"Q. c #A1C6F3",
"!. c #C8C7C6",
"~. c #E4E1DB",
"^. c #E5E3DF",
"/. c #D5DAE2",
"(. c None",
/* pixels */
"(.(.(.(.(.N N h h h h (.(.(.(.(.",
"(.(.(.(.n w 4 X & & 9 i (.(.(.(.",
"(.(.S I & X X X X X X X Z Z (.(.",
"(.(.^ ..X X = C ! X X X } { (.(.",
"(.n [ V.D a &.#.c.;.d w v.l.i (.",
"F w ~ C.z.*.>.t.x.:.,.X.Z. .7 n ",
"I 4 X ] +.6.4.#.r.1.3.O.| 6 , n ",
"F & X , e.g.N.d.s.N.f.w.8 X X n ",
"R & X ' Y.a.M.n.n.b.p.j.$.X X h ",
"R 4 X 0.Q.>.@.A.S.i.=.D.7.; 4 l ",
"I t X 8.R.J.^.L.q.^.W.H.9.; 9 l ",
"(.Q & ) F.E.!.k.2.U./.G.%.+ n (.",
"(.(.n X _ K.U.h.y.I.P.=.= i (.(.",
"(.(.Q n & s ) <.o.` d & p B (.(.",
"(.(.(.(.F u 4 & & 4 e C (.(.(.(.",
"(.(.(.(.(.Q I R F L F (.(.(.(.(."
};
